<?xml version="1.0" encoding="utf-8" standalone="no"?>
<!DOCTYPE svg PUBLIC "-//W3C//DTD SVG 1.1//EN"
  "http://www.w3.org/Graphics/SVG/1.1/DTD/svg11.dtd">
<svg xmlns:xlink="http://www.w3.org/1999/xlink" width="408.10125pt" height="358.503175pt" viewBox="0 0 408.10125 358.503175" xmlns="http://www.w3.org/2000/svg" version="1.1">
 <metadata>
  <rdf:RDF xmlns:dc="http://purl.org/dc/elements/1.1/" xmlns:cc="http://creativecommons.org/ns#" xmlns:rdf="http://www.w3.org/1999/02/22-rdf-syntax-ns#">
   <cc:Work>
    <dc:type rdf:resource="http://purl.org/dc/dcmitype/StillImage"/>
    <dc:date>2024-10-28T09:21:09.702476</dc:date>
    <dc:format>image/svg+xml</dc:format>
    <dc:creator>
     <cc:Agent>
      <dc:title>Matplotlib v3.9.2, https://matplotlib.org/</dc:title>
     </cc:Agent>
    </dc:creator>
   </cc:Work>
  </rdf:RDF>
 </metadata>
 <defs>
  <style type="text/css">*{stroke-linejoin: round; stroke-linecap: butt}</style>
 </defs>
 <g id="figure_1">
  <g id="patch_1">
   <path d="M 0 358.503175 
L 408.10125 358.503175 
L 408.10125 -0 
L 0 -0 
z
" style="fill: #ffffff"/>
  </g>
  <g id="axes_1">
   <g id="patch_2">
    <path d="M 43.78125 288.430125 
L 400.90125 288.430125 
L 400.90125 22.318125 
L 43.78125 22.318125 
z
" style="fill: #ffffff"/>
   </g>
   <g id="matplotlib.axis_1">
    <g id="xtick_1">
     <g id="line2d_1">
      <defs>
       <path id="m75ffe97751" d="M 0 0 
L 0 3.5 
" style="stroke: #000000; stroke-width: 0.8"/>
      </defs>
      <g>
       <use xlink:href="#m75ffe97751" x="60.013977" y="288.430125" style="stroke: #000000; stroke-width: 0.8"/>
      </g>
     </g>
     <g id="text_1">
      <!-- 0.0 -->
      <g transform="translate(52.062415 303.028562) scale(0.1 -0.1)">
       <defs>
        <path id="DejaVuSans-30" d="M 2034 4250 
Q 1547 4250 1301 3770 
Q 1056 3291 1056 2328 
Q 1056 1369 1301 889 
Q 1547 409 2034 409 
Q 2525 409 2770 889 
Q 3016 1369 3016 2328 
Q 3016 3291 2770 3770 
Q 2525 4250 2034 4250 
z
M 2034 4750 
Q 2819 4750 3233 4129 
Q 3647 3509 3647 2328 
Q 3647 1150 3233 529 
Q 2819 -91 2034 -91 
Q 1250 -91 836 529 
Q 422 1150 422 2328 
Q 422 3509 836 4129 
Q 1250 4750 2034 4750 
z
" transform="scale(0.015625)"/>
        <path id="DejaVuSans-2e" d="M 684 794 
L 1344 794 
L 1344 0 
L 684 0 
L 684 794 
z
" transform="scale(0.015625)"/>
       </defs>
       <use xlink:href="#DejaVuSans-30"/>
       <use xlink:href="#DejaVuSans-2e" x="63.623047"/>
       <use xlink:href="#DejaVuSans-30" x="95.410156"/>
      </g>
     </g>
    </g>
    <g id="xtick_2">
     <g id="line2d_2">
      <g>
       <use xlink:href="#m75ffe97751" x="124.944886" y="288.430125" style="stroke: #000000; stroke-width: 0.8"/>
      </g>
     </g>
     <g id="text_2">
      <!-- 0.2 -->
      <g transform="translate(116.993324 303.028562) scale(0.1 -0.1)">
       <defs>
        <path id="DejaVuSans-32" d="M 1228 531 
L 3431 531 
L 3431 0 
L 469 0 
L 469 531 
Q 828 903 1448 1529 
Q 2069 2156 2228 2338 
Q 2531 2678 2651 2914 
Q 2772 3150 2772 3378 
Q 2772 3750 2511 3984 
Q 2250 4219 1831 4219 
Q 1534 4219 1204 4116 
Q 875 4013 500 3803 
L 500 4441 
Q 881 4594 1212 4672 
Q 1544 4750 1819 4750 
Q 2544 4750 2975 4387 
Q 3406 4025 3406 3419 
Q 3406 3131 3298 2873 
Q 3191 2616 2906 2266 
Q 2828 2175 2409 1742 
Q 1991 1309 1228 531 
z
" transform="scale(0.015625)"/>
       </defs>
       <use xlink:href="#DejaVuSans-30"/>
       <use xlink:href="#DejaVuSans-2e" x="63.623047"/>
       <use xlink:href="#DejaVuSans-32" x="95.410156"/>
      </g>
     </g>
    </g>
    <g id="xtick_3">
     <g id="line2d_3">
      <g>
       <use xlink:href="#m75ffe97751" x="189.875795" y="288.430125" style="stroke: #000000; stroke-width: 0.8"/>
      </g>
     </g>
     <g id="text_3">
      <!-- 0.4 -->
      <g transform="translate(181.924233 303.028562) scale(0.1 -0.1)">
       <defs>
        <path id="DejaVuSans-34" d="M 2419 4116 
L 825 1625 
L 2419 1625 
L 2419 4116 
z
M 2253 4666 
L 3047 4666 
L 3047 1625 
L 3713 1625 
L 3713 1100 
L 3047 1100 
L 3047 0 
L 2419 0 
L 2419 1100 
L 313 1100 
L 313 1709 
L 2253 4666 
z
" transform="scale(0.015625)"/>
       </defs>
       <use xlink:href="#DejaVuSans-30"/>
       <use xlink:href="#DejaVuSans-2e" x="63.623047"/>
       <use xlink:href="#DejaVuSans-34" x="95.410156"/>
      </g>
     </g>
    </g>
    <g id="xtick_4">
     <g id="line2d_4">
      <g>
       <use xlink:href="#m75ffe97751" x="254.806705" y="288.430125" style="stroke: #000000; stroke-width: 0.8"/>
      </g>
     </g>
     <g id="text_4">
      <!-- 0.6 -->
      <g transform="translate(246.855142 303.028562) scale(0.1 -0.1)">
       <defs>
        <path id="DejaVuSans-36" d="M 2113 2584 
Q 1688 2584 1439 2293 
Q 1191 2003 1191 1497 
Q 1191 994 1439 701 
Q 1688 409 2113 409 
Q 2538 409 2786 701 
Q 3034 994 3034 1497 
Q 3034 2003 2786 2293 
Q 2538 2584 2113 2584 
z
M 3366 4563 
L 3366 3988 
Q 3128 4100 2886 4159 
Q 2644 4219 2406 4219 
Q 1781 4219 1451 3797 
Q 1122 3375 1075 2522 
Q 1259 2794 1537 2939 
Q 1816 3084 2150 3084 
Q 2853 3084 3261 2657 
Q 3669 2231 3669 1497 
Q 3669 778 3244 343 
Q 2819 -91 2113 -91 
Q 1303 -91 875 529 
Q 447 1150 447 2328 
Q 447 3434 972 4092 
Q 1497 4750 2381 4750 
Q 2619 4750 2861 4703 
Q 3103 4656 3366 4563 
z
" transform="scale(0.015625)"/>
       </defs>
       <use xlink:href="#DejaVuSans-30"/>
       <use xlink:href="#DejaVuSans-2e" x="63.623047"/>
       <use xlink:href="#DejaVuSans-36" x="95.410156"/>
      </g>
     </g>
    </g>
    <g id="xtick_5">
     <g id="line2d_5">
      <g>
       <use xlink:href="#m75ffe97751" x="319.737614" y="288.430125" style="stroke: #000000; stroke-width: 0.8"/>
      </g>
     </g>
     <g id="text_5">
      <!-- 0.8 -->
      <g transform="translate(311.786051 303.028562) scale(0.1 -0.1)">
       <defs>
        <path id="DejaVuSans-38" d="M 2034 2216 
Q 1584 2216 1326 1975 
Q 1069 1734 1069 1313 
Q 1069 891 1326 650 
Q 1584 409 2034 409 
Q 2484 409 2743 651 
Q 3003 894 3003 1313 
Q 3003 1734 2745 1975 
Q 2488 2216 2034 2216 
z
M 1403 2484 
Q 997 2584 770 2862 
Q 544 3141 544 3541 
Q 544 4100 942 4425 
Q 1341 4750 2034 4750 
Q 2731 4750 3128 4425 
Q 3525 4100 3525 3541 
Q 3525 3141 3298 2862 
Q 3072 2584 2669 2484 
Q 3125 2378 3379 2068 
Q 3634 1759 3634 1313 
Q 3634 634 3220 271 
Q 2806 -91 2034 -91 
Q 1263 -91 848 271 
Q 434 634 434 1313 
Q 434 1759 690 2068 
Q 947 2378 1403 2484 
z
M 1172 3481 
Q 1172 3119 1398 2916 
Q 1625 2713 2034 2713 
Q 2441 2713 2670 2916 
Q 2900 3119 2900 3481 
Q 2900 3844 2670 4047 
Q 2441 4250 2034 4250 
Q 1625 4250 1398 4047 
Q 1172 3844 1172 3481 
z
" transform="scale(0.015625)"/>
       </defs>
       <use xlink:href="#DejaVuSans-30"/>
       <use xlink:href="#DejaVuSans-2e" x="63.623047"/>
       <use xlink:href="#DejaVuSans-38" x="95.410156"/>
      </g>
     </g>
    </g>
    <g id="xtick_6">
     <g id="line2d_6">
      <g>
       <use xlink:href="#m75ffe97751" x="384.668523" y="288.430125" style="stroke: #000000; stroke-width: 0.8"/>
      </g>
     </g>
     <g id="text_6">
      <!-- 1.0 -->
      <g transform="translate(376.71696 303.028562) scale(0.1 -0.1)">
       <defs>
        <path id="DejaVuSans-31" d="M 794 531 
L 1825 531 
L 1825 4091 
L 703 3866 
L 703 4441 
L 1819 4666 
L 2450 4666 
L 2450 531 
L 3481 531 
L 3481 0 
L 794 0 
L 794 531 
z
" transform="scale(0.015625)"/>
       </defs>
       <use xlink:href="#DejaVuSans-31"/>
       <use xlink:href="#DejaVuSans-2e" x="63.623047"/>
       <use xlink:href="#DejaVuSans-30" x="95.410156"/>
      </g>
     </g>
    </g>
    <g id="text_7">
     <!-- Recall -->
     <g transform="translate(207.424062 316.706687) scale(0.1 -0.1)">
      <defs>
       <path id="DejaVuSans-52" d="M 2841 2188 
Q 3044 2119 3236 1894 
Q 3428 1669 3622 1275 
L 4263 0 
L 3584 0 
L 2988 1197 
Q 2756 1666 2539 1819 
Q 2322 1972 1947 1972 
L 1259 1972 
L 1259 0 
L 628 0 
L 628 4666 
L 2053 4666 
Q 2853 4666 3247 4331 
Q 3641 3997 3641 3322 
Q 3641 2881 3436 2590 
Q 3231 2300 2841 2188 
z
M 1259 4147 
L 1259 2491 
L 2053 2491 
Q 2509 2491 2742 2702 
Q 2975 2913 2975 3322 
Q 2975 3731 2742 3939 
Q 2509 4147 2053 4147 
L 1259 4147 
z
" transform="scale(0.015625)"/>
       <path id="DejaVuSans-65" d="M 3597 1894 
L 3597 1613 
L 953 1613 
Q 991 1019 1311 708 
Q 1631 397 2203 397 
Q 2534 397 2845 478 
Q 3156 559 3463 722 
L 3463 178 
Q 3153 47 2828 -22 
Q 2503 -91 2169 -91 
Q 1331 -91 842 396 
Q 353 884 353 1716 
Q 353 2575 817 3079 
Q 1281 3584 2069 3584 
Q 2775 3584 3186 3129 
Q 3597 2675 3597 1894 
z
M 3022 2063 
Q 3016 2534 2758 2815 
Q 2500 3097 2075 3097 
Q 1594 3097 1305 2825 
Q 1016 2553 972 2059 
L 3022 2063 
z
" transform="scale(0.015625)"/>
       <path id="DejaVuSans-63" d="M 3122 3366 
L 3122 2828 
Q 2878 2963 2633 3030 
Q 2388 3097 2138 3097 
Q 1578 3097 1268 2742 
Q 959 2388 959 1747 
Q 959 1106 1268 751 
Q 1578 397 2138 397 
Q 2388 397 2633 464 
Q 2878 531 3122 666 
L 3122 134 
Q 2881 22 2623 -34 
Q 2366 -91 2075 -91 
Q 1284 -91 818 406 
Q 353 903 353 1747 
Q 353 2603 823 3093 
Q 1294 3584 2113 3584 
Q 2378 3584 2631 3529 
Q 2884 3475 3122 3366 
z
" transform="scale(0.015625)"/>
       <path id="DejaVuSans-61" d="M 2194 1759 
Q 1497 1759 1228 1600 
Q 959 1441 959 1056 
Q 959 750 1161 570 
Q 1363 391 1709 391 
Q 2188 391 2477 730 
Q 2766 1069 2766 1631 
L 2766 1759 
L 2194 1759 
z
M 3341 1997 
L 3341 0 
L 2766 0 
L 2766 531 
Q 2569 213 2275 61 
Q 1981 -91 1556 -91 
Q 1019 -91 701 211 
Q 384 513 384 1019 
Q 384 1609 779 1909 
Q 1175 2209 1959 2209 
L 2766 2209 
L 2766 2266 
Q 2766 2663 2505 2880 
Q 2244 3097 1772 3097 
Q 1472 3097 1187 3025 
Q 903 2953 641 2809 
L 641 3341 
Q 956 3463 1253 3523 
Q 1550 3584 1831 3584 
Q 2591 3584 2966 3190 
Q 3341 2797 3341 1997 
z
" transform="scale(0.015625)"/>
       <path id="DejaVuSans-6c" d="M 603 4863 
L 1178 4863 
L 1178 0 
L 603 0 
L 603 4863 
z
" transform="scale(0.015625)"/>
      </defs>
      <use xlink:href="#DejaVuSans-52"/>
      <use xlink:href="#DejaVuSans-65" x="64.982422"/>
      <use xlink:href="#DejaVuSans-63" x="126.505859"/>
      <use xlink:href="#DejaVuSans-61" x="181.486328"/>
      <use xlink:href="#DejaVuSans-6c" x="242.765625"/>
      <use xlink:href="#DejaVuSans-6c" x="270.548828"/>
     </g>
    </g>
   </g>
   <g id="matplotlib.axis_2">
    <g id="ytick_1">
     <g id="line2d_7">
      <defs>
       <path id="m58d076a56b" d="M 0 0 
L -3.5 0 
" style="stroke: #000000; stroke-width: 0.8"/>
      </defs>
      <g>
       <use xlink:href="#m58d076a56b" x="43.78125" y="276.334125" style="stroke: #000000; stroke-width: 0.8"/>
      </g>
     </g>
     <g id="text_8">
      <!-- 0.0 -->
      <g transform="translate(20.878125 280.133344) scale(0.1 -0.1)">
       <use xlink:href="#DejaVuSans-30"/>
       <use xlink:href="#DejaVuSans-2e" x="63.623047"/>
       <use xlink:href="#DejaVuSans-30" x="95.410156"/>
      </g>
     </g>
    </g>
    <g id="ytick_2">
     <g id="line2d_8">
      <g>
       <use xlink:href="#m58d076a56b" x="43.78125" y="227.950125" style="stroke: #000000; stroke-width: 0.8"/>
      </g>
     </g>
     <g id="text_9">
      <!-- 0.2 -->
      <g transform="translate(20.878125 231.749344) scale(0.1 -0.1)">
       <use xlink:href="#DejaVuSans-30"/>
       <use xlink:href="#DejaVuSans-2e" x="63.623047"/>
       <use xlink:href="#DejaVuSans-32" x="95.410156"/>
      </g>
     </g>
    </g>
    <g id="ytick_3">
     <g id="line2d_9">
      <g>
       <use xlink:href="#m58d076a56b" x="43.78125" y="179.566125" style="stroke: #000000; stroke-width: 0.8"/>
      </g>
     </g>
     <g id="text_10">
      <!-- 0.4 -->
      <g transform="translate(20.878125 183.365344) scale(0.1 -0.1)">
       <use xlink:href="#DejaVuSans-30"/>
       <use xlink:href="#DejaVuSans-2e" x="63.623047"/>
       <use xlink:href="#DejaVuSans-34" x="95.410156"/>
      </g>
     </g>
    </g>
    <g id="ytick_4">
     <g id="line2d_10">
      <g>
       <use xlink:href="#m58d076a56b" x="43.78125" y="131.182125" style="stroke: #000000; stroke-width: 0.8"/>
      </g>
     </g>
     <g id="text_11">
      <!-- 0.6 -->
      <g transform="translate(20.878125 134.981344) scale(0.1 -0.1)">
       <use xlink:href="#DejaVuSans-30"/>
       <use xlink:href="#DejaVuSans-2e" x="63.623047"/>
       <use xlink:href="#DejaVuSans-36" x="95.410156"/>
      </g>
     </g>
    </g>
    <g id="ytick_5">
     <g id="line2d_11">
      <g>
       <use xlink:href="#m58d076a56b" x="43.78125" y="82.798125" style="stroke: #000000; stroke-width: 0.8"/>
      </g>
     </g>
     <g id="text_12">
      <!-- 0.8 -->
      <g transform="translate(20.878125 86.597344) scale(0.1 -0.1)">
       <use xlink:href="#DejaVuSans-30"/>
       <use xlink:href="#DejaVuSans-2e" x="63.623047"/>
       <use xlink:href="#DejaVuSans-38" x="95.410156"/>
      </g>
     </g>
    </g>
    <g id="ytick_6">
     <g id="line2d_12">
      <g>
       <use xlink:href="#m58d076a56b" x="43.78125" y="34.414125" style="stroke: #000000; stroke-width: 0.8"/>
      </g>
     </g>
     <g id="text_13">
      <!-- 1.0 -->
      <g transform="translate(20.878125 38.213344) scale(0.1 -0.1)">
       <use xlink:href="#DejaVuSans-31"/>
       <use xlink:href="#DejaVuSans-2e" x="63.623047"/>
       <use xlink:href="#DejaVuSans-30" x="95.410156"/>
      </g>
     </g>
    </g>
    <g id="text_14">
     <!-- Precision -->
     <g transform="translate(14.798438 177.681156) rotate(-90) scale(0.1 -0.1)">
      <defs>
       <path id="DejaVuSans-50" d="M 1259 4147 
L 1259 2394 
L 2053 2394 
Q 2494 2394 2734 2622 
Q 2975 2850 2975 3272 
Q 2975 3691 2734 3919 
Q 2494 4147 2053 4147 
L 1259 4147 
z
M 628 4666 
L 2053 4666 
Q 2838 4666 3239 4311 
Q 3641 3956 3641 3272 
Q 3641 2581 3239 2228 
Q 2838 1875 2053 1875 
L 1259 1875 
L 1259 0 
L 628 0 
L 628 4666 
z
" transform="scale(0.015625)"/>
       <path id="DejaVuSans-72" d="M 2631 2963 
Q 2534 3019 2420 3045 
Q 2306 3072 2169 3072 
Q 1681 3072 1420 2755 
Q 1159 2438 1159 1844 
L 1159 0 
L 581 0 
L 581 3500 
L 1159 3500 
L 1159 2956 
Q 1341 3275 1631 3429 
Q 1922 3584 2338 3584 
Q 2397 3584 2469 3576 
Q 2541 3569 2628 3553 
L 2631 2963 
z
" transform="scale(0.015625)"/>
       <path id="DejaVuSans-69" d="M 603 3500 
L 1178 3500 
L 1178 0 
L 603 0 
L 603 3500 
z
M 603 4863 
L 1178 4863 
L 1178 4134 
L 603 4134 
L 603 4863 
z
" transform="scale(0.015625)"/>
       <path id="DejaVuSans-73" d="M 2834 3397 
L 2834 2853 
Q 2591 2978 2328 3040 
Q 2066 3103 1784 3103 
Q 1356 3103 1142 2972 
Q 928 2841 928 2578 
Q 928 2378 1081 2264 
Q 1234 2150 1697 2047 
L 1894 2003 
Q 2506 1872 2764 1633 
Q 3022 1394 3022 966 
Q 3022 478 2636 193 
Q 2250 -91 1575 -91 
Q 1294 -91 989 -36 
Q 684 19 347 128 
L 347 722 
Q 666 556 975 473 
Q 1284 391 1588 391 
Q 1994 391 2212 530 
Q 2431 669 2431 922 
Q 2431 1156 2273 1281 
Q 2116 1406 1581 1522 
L 1381 1569 
Q 847 1681 609 1914 
Q 372 2147 372 2553 
Q 372 3047 722 3315 
Q 1072 3584 1716 3584 
Q 2034 3584 2315 3537 
Q 2597 3491 2834 3397 
z
" transform="scale(0.015625)"/>
       <path id="DejaVuSans-6f" d="M 1959 3097 
Q 1497 3097 1228 2736 
Q 959 2375 959 1747 
Q 959 1119 1226 758 
Q 1494 397 1959 397 
Q 2419 397 2687 759 
Q 2956 1122 2956 1747 
Q 2956 2369 2687 2733 
Q 2419 3097 1959 3097 
z
M 1959 3584 
Q 2709 3584 3137 3096 
Q 3566 2609 3566 1747 
Q 3566 888 3137 398 
Q 2709 -91 1959 -91 
Q 1206 -91 779 398 
Q 353 888 353 1747 
Q 353 2609 779 3096 
Q 1206 3584 1959 3584 
z
" transform="scale(0.015625)"/>
       <path id="DejaVuSans-6e" d="M 3513 2113 
L 3513 0 
L 2938 0 
L 2938 2094 
Q 2938 2591 2744 2837 
Q 2550 3084 2163 3084 
Q 1697 3084 1428 2787 
Q 1159 2491 1159 1978 
L 1159 0 
L 581 0 
L 581 3500 
L 1159 3500 
L 1159 2956 
Q 1366 3272 1645 3428 
Q 1925 3584 2291 3584 
Q 2894 3584 3203 3211 
Q 3513 2838 3513 2113 
z
" transform="scale(0.015625)"/>
      </defs>
      <use xlink:href="#DejaVuSans-50"/>
      <use xlink:href="#DejaVuSans-72" x="58.552734"/>
      <use xlink:href="#DejaVuSans-65" x="97.416016"/>
      <use xlink:href="#DejaVuSans-63" x="158.939453"/>
      <use xlink:href="#DejaVuSans-69" x="213.919922"/>
      <use xlink:href="#DejaVuSans-73" x="241.703125"/>
      <use xlink:href="#DejaVuSans-69" x="293.802734"/>
      <use xlink:href="#DejaVuSans-6f" x="321.585938"/>
      <use xlink:href="#DejaVuSans-6e" x="382.767578"/>
     </g>
    </g>
   </g>
   <g id="line2d_13">
    <path d="M 384.668523 261.214125 
L 384.668523 261.18954 
L 382.138747 261.228953 
L 382.138747 261.189346 
L 382.138747 261.184381 
L 381.295488 261.221562 
L 381.295488 261.111743 
L 381.295488 261.043561 
L 376.235937 261.226715 
L 376.235937 261.158481 
L 376.235937 261.110094 
L 373.706161 261.116972 
L 373.706161 261.114399 
L 373.706161 261.086033 
L 371.176386 261.126547 
L 371.176386 261.090191 
L 371.176386 260.964208 
L 369.489869 261.023789 
L 369.489869 260.933494 
L 369.489869 260.896003 
L 366.960093 260.912255 
L 366.960093 260.904148 
L 366.960093 260.87435 
L 363.587059 260.927934 
L 363.587059 260.922481 
L 363.587059 260.875978 
L 360.214024 260.941181 
L 360.214024 260.927413 
L 360.214024 260.894268 
L 359.370766 260.934878 
L 359.370766 260.826433 
L 359.370766 260.733471 
L 355.154473 260.849121 
L 355.154473 260.829272 
L 355.154473 260.812218 
L 350.93818 260.929474 
L 350.93818 260.909545 
L 350.93818 260.906694 
L 349.251663 260.973414 
L 349.251663 260.881879 
L 349.251663 260.870361 
L 344.192112 261.058307 
L 344.192112 261.012373 
L 344.192112 261.00373 
L 341.662336 261.051114 
L 341.662336 261.022152 
L 341.662336 260.998904 
L 335.759526 261.193869 
L 335.759526 261.19097 
L 335.759526 261.176463 
L 334.073009 261.219938 
L 334.073009 261.152816 
L 334.073009 261.149884 
L 331.543233 261.196496 
L 331.543233 261.172926 
L 331.543233 261.155201 
L 330.699975 261.199391 
L 330.699975 261.089461 
L 330.699975 261.077481 
L 326.483682 261.23503 
L 326.483682 261.190163 
L 326.483682 261.13597 
L 323.110648 261.223206 
L 323.110648 261.205033 
L 323.110648 261.011543 
L 320.580872 261.124912 
L 320.580872 261.040901 
L 320.580872 261.000119 
L 315.521321 261.211006 
L 315.521321 261.170335 
L 315.521321 261.157777 
L 312.991545 261.283109 
L 312.991545 261.188883 
L 312.991545 261.150861 
L 307.088735 261.389457 
L 307.088735 261.373686 
L 307.088735 261.35155 
L 302.872442 261.48165 
L 302.872442 261.456277 
L 301.185925 261.531147 
L 301.185925 261.445139 
L 301.185925 261.438728 
L 297.812891 261.56758 
L 297.812891 261.525911 
L 297.812891 261.333808 
L 296.126374 261.334656 
L 296.126374 261.324686 
L 296.126374 261.16333 
L 294.439857 261.217524 
L 294.439857 261.156116 
L 294.439857 261.1321 
L 289.380305 261.341589 
L 289.380305 261.331334 
L 289.380305 261.314212 
L 283.477496 261.606627 
L 283.477496 261.565915 
L 283.477496 261.521556 
L 280.104461 261.691008 
L 280.104461 261.622774 
L 280.104461 261.533112 
L 275.888169 261.693104 
L 275.888169 261.689642 
L 275.888169 261.647969 
L 272.515134 261.756449 
L 272.515134 261.752963 
L 272.515134 261.679356 
L 267.455583 261.903398 
L 267.455583 261.896396 
L 267.455583 261.878861 
L 265.769066 261.964972 
L 265.769066 261.88053 
L 265.769066 261.86636 
L 264.082549 261.953226 
L 264.082549 261.867943 
L 264.082549 261.864367 
L 263.23929 261.920597 
L 263.23929 261.809282 
L 263.23929 261.769369 
L 261.552773 261.828636 
L 261.552773 261.773843 
L 261.552773 261.75181 
L 258.179739 261.915865 
L 258.179739 261.871851 
L 258.179739 261.77183 
L 256.493222 261.791462 
L 256.493222 261.780198 
L 256.493222 261.693252 
L 255.649963 261.752301 
L 255.649963 261.641601 
L 255.649963 261.501821 
L 252.276929 261.656701 
L 252.276929 261.633229 
L 252.276929 261.61754 
L 249.747153 261.701867 
L 249.747153 261.690057 
L 249.747153 261.634692 
L 247.217378 261.75984 
L 247.217378 261.708243 
L 247.217378 261.696284 
L 243.001085 261.896105 
L 243.001085 261.876224 
L 240.471309 261.997132 
L 240.471309 261.953325 
L 240.471309 261.897181 
L 234.568499 262.235747 
L 234.568499 262.231776 
L 234.568499 262.103537 
L 232.881982 262.229006 
L 232.881982 262.123924 
L 232.881982 262.119852 
L 230.352206 262.303737 
L 230.352206 262.206389 
L 230.352206 262.169534 
L 229.508948 262.235569 
L 229.508948 262.12433 
L 229.508948 262.120176 
L 226.979172 262.31183 
L 226.979172 262.212616 
L 226.979172 262.170861 
L 226.135914 262.238224 
L 226.135914 262.128986 
L 226.135914 262.026638 
L 222.762879 262.228216 
L 222.762879 262.189757 
L 222.762879 262.112206 
L 221.076362 262.18199 
L 221.076362 262.142872 
L 221.076362 262.103537 
L 218.546586 262.227127 
L 218.546586 262.205215 
L 218.546586 262.139069 
L 217.703328 262.210166 
L 217.703328 262.099059 
L 217.703328 261.866891 
L 213.487035 262.149383 
L 213.487035 262.121911 
L 213.487035 262.057393 
L 210.114001 262.298349 
L 210.114001 262.243235 
L 210.114001 262.178385 
L 207.584225 262.315582 
L 207.584225 262.292334 
L 207.584225 262.254976 
L 204.211191 262.493938 
L 204.211191 262.447478 
L 204.211191 262.386613 
L 203.367932 262.463501 
L 203.367932 262.355063 
L 203.367932 262.345554 
L 200.838157 262.47931 
L 200.838157 262.469801 
L 200.838157 262.369161 
L 199.994898 262.447984 
L 199.994898 262.336662 
L 199.994898 262.272949 
L 199.15164 262.352759 
L 199.15164 262.244185 
L 199.15164 262.229249 
L 195.778605 262.468294 
L 195.778605 262.443569 
L 195.778605 262.438613 
L 194.092088 262.57195 
L 194.092088 262.492714 
L 194.092088 262.382264 
L 190.719054 262.64887 
L 190.719054 262.60377 
L 190.719054 262.512673 
L 189.875795 262.59678 
L 189.875795 262.489577 
L 189.875795 262.375459 
L 189.032537 262.460902 
L 189.032537 262.350838 
L 189.032537 262.271146 
L 184.816244 262.62131 
L 184.816244 262.595 
L 184.816244 262.536761 
L 181.44321 262.784347 
L 181.44321 262.779074 
L 181.44321 262.581073 
L 180.599951 262.671187 
L 180.599951 262.562405 
L 180.599951 262.373447 
L 179.756693 262.465477 
L 179.756693 262.358275 
L 179.756693 262.329787 
L 178.070176 262.510125 
L 178.070176 262.407809 
L 178.070176 262.309777 
L 177.226917 262.404183 
L 177.226917 262.293674 
L 177.226917 262.163506 
L 176.383659 262.259521 
L 176.383659 262.151899 
L 176.383659 261.825233 
L 172.167366 262.209735 
L 172.167366 261.989337 
L 171.324107 262.090842 
L 171.324107 261.982017 
L 171.324107 261.488267 
L 168.794331 261.737455 
L 168.794331 261.696376 
L 168.794331 261.508624 
L 166.264556 261.805088 
L 166.264556 261.721508 
L 166.264556 261.61567 
L 164.578039 261.814241 
L 164.578039 261.729412 
L 164.578039 261.600294 
L 162.891522 261.780752 
L 162.891522 261.715878 
L 162.891522 261.679587 
L 162.048263 261.792486 
L 162.048263 261.683314 
L 162.048263 261.550125 
L 160.361746 261.698395 
L 160.361746 261.668572 
L 160.361746 261.509985 
L 159.518487 261.626984 
L 159.518487 261.520134 
L 159.518487 261.481596 
L 156.988712 261.798702 
L 156.988712 261.730031 
L 156.988712 261.652964 
L 155.302195 261.78545 
L 155.302195 261.444713 
L 153.615677 261.676308 
L 153.615677 261.587766 
L 153.615677 261.555303 
L 151.92916 261.805596 
L 151.92916 261.700784 
L 151.92916 261.66823 
L 148.556126 262.087574 
L 148.556126 262.063563 
L 148.556126 261.942284 
L 147.712867 262.071268 
L 147.712867 261.965376 
L 147.712867 261.940715 
L 146.869609 262.070954 
L 146.869609 261.964021 
L 146.869609 261.855473 
L 142.653316 262.453469 
L 142.653316 262.404536 
L 142.653316 262.077865 
L 141.810058 262.214847 
L 141.810058 262.103537 
L 141.810058 261.658553 
L 139.280282 262.031936 
L 139.280282 261.977761 
L 139.280282 261.877367 
L 137.593765 262.11263 
L 137.593765 262.057897 
L 137.593765 261.862968 
L 136.750506 262.01095 
L 136.750506 261.898243 
L 136.750506 261.888771 
L 135.063989 262.14106 
L 135.063989 262.075264 
L 135.063989 262.065815 
L 134.220731 262.216778 
L 134.220731 262.113043 
L 134.220731 262.084486 
L 130.847696 262.594247 
L 130.847696 262.58495 
L 130.847696 262.547639 
L 129.161179 262.783961 
L 129.161179 262.746837 
L 129.161179 262.558125 
L 127.474662 262.790668 
L 127.474662 262.762175 
L 127.474662 262.656669 
L 126.631403 262.818085 
L 126.631403 262.712115 
L 126.631403 262.673167 
L 124.944886 262.913491 
L 124.944886 262.894125 
L 124.944886 262.766871 
L 122.415111 263.19016 
L 122.415111 263.161145 
L 122.415111 262.974364 
L 119.885335 263.409881 
L 119.885335 263.380641 
L 119.885335 263.252389 
L 118.198818 263.57229 
L 118.198818 263.493756 
L 118.198818 263.444179 
L 115.669042 263.889293 
L 115.669042 263.869863 
L 115.669042 263.860125 
L 114.825784 264.03952 
L 114.825784 263.932863 
L 114.825784 263.794412 
L 113.139267 264.062821 
L 113.139267 264.052932 
L 113.139267 263.800441 
L 111.452749 264.158283 
L 111.452749 264.067192 
L 111.452749 263.785554 
L 110.609491 263.980763 
L 110.609491 263.874726 
L 110.609491 263.79941 
L 108.079715 264.311945 
L 108.079715 264.280419 
L 108.079715 264.259309 
L 107.236457 264.460751 
L 107.236457 264.35577 
L 107.236457 264.33455 
L 105.549939 264.68053 
L 105.549939 264.628319 
L 105.549939 264.61782 
L 104.706681 264.824466 
L 104.706681 264.720212 
L 104.706681 264.505933 
L 103.020164 264.878303 
L 103.020164 264.824871 
L 103.020164 264.355562 
L 102.176905 264.579023 
L 102.176905 264.475301 
L 102.176905 264.298304 
L 101.333647 264.527272 
L 101.333647 264.420477 
L 101.333647 264.138569 
L 100.490388 264.375155 
L 100.490388 264.263273 
L 100.490388 264.149277 
L 99.64713 264.390596 
L 99.64713 264.276606 
L 99.64713 263.880412 
L 98.803871 264.13202 
L 98.803871 264.024037 
L 98.803871 263.955571 
L 97.960612 264.211185 
L 97.960612 264.102215 
L 97.960612 264.033108 
L 96.274095 264.445485 
L 96.274095 264.390887 
L 95.430837 264.655228 
L 95.430837 264.54684 
L 95.430837 264.533149 
L 94.587578 264.80073 
L 94.587578 264.692435 
L 94.587578 264.595995 
L 92.901061 265.048383 
L 92.901061 265.034868 
L 92.901061 264.980479 
L 91.214544 265.52369 
L 91.214544 265.431518 
L 91.214544 265.018019 
L 90.371285 265.309922 
L 90.371285 265.197143 
L 90.371285 264.354593 
L 89.528027 264.671315 
L 89.528027 264.557769 
L 89.528027 264.306852 
L 88.684768 264.633869 
L 88.684768 264.516194 
L 88.684768 263.946655 
L 86.998251 264.533149 
L 86.998251 264.313255 
L 86.154993 264.670797 
L 86.154993 264.560938 
L 86.154993 264.486542 
L 85.311734 264.850581 
L 85.311734 264.740515 
L 85.311734 264.647168 
L 83.625217 265.319881 
L 83.625217 265.283946 
L 83.625217 264.774808 
L 82.781958 265.168587 
L 82.781958 265.052881 
L 82.781958 264.752848 
L 81.9387 265.161976 
L 81.9387 265.041629 
L 81.9387 264.5992 
L 81.095441 265.029452 
L 81.095441 264.922804 
L 81.095441 264.590436 
L 80.252183 265.03825 
L 80.252183 264.927288 
L 80.252183 264.859659 
L 78.565666 265.668313 
L 78.565666 265.646896 
L 78.565666 265.269177 
L 77.722407 265.750125 
L 77.722407 265.638714 
L 77.722407 265.217451 
L 76.879148 265.723599 
L 76.879148 265.605965 
L 76.879148 265.485695 
L 76.03589 266.004956 
L 76.03589 265.88758 
L 76.03589 264.78518 
L 75.192631 265.36546 
L 75.192631 265.25382 
L 75.192631 264.533149 
L 74.349373 265.158473 
L 74.349373 265.035663 
L 74.349373 264.94177 
L 73.506114 265.582125 
L 73.506114 265.461316 
L 73.506114 264.424217 
L 71.819597 265.783097 
L 71.819597 265.716946 
L 71.819597 265.513422 
L 70.976339 266.254125 
L 70.976339 266.123216 
L 70.976339 265.70926 
L 70.13308 266.493311 
L 70.13308 266.358043 
L 70.13308 266.112153 
L 69.289821 266.930874 
L 69.289821 266.79606 
L 69.289821 266.292163 
L 67.603304 267.992056 
L 67.603304 267.895055 
L 67.603304 264.874757 
L 66.760046 266.094125 
L 66.760046 265.928964 
L 66.760046 265.082032 
L 65.916787 266.430967 
L 65.916787 266.254125 
L 65.916787 263.307663 
L 65.073529 265.082032 
L 65.073529 264.904834 
L 65.073529 263.927971 
L 64.23027 265.906539 
L 64.23027 265.6297 
L 64.23027 263.991268 
L 63.387012 266.358043 
L 63.387012 266.039657 
L 63.387012 258.739943 
L 62.543753 262.894125 
L 62.543753 262.377202 
L 62.543753 256.174125 
L 61.700494 262.510125 
L 61.700494 261.672307 
L 61.700494 259.054125 
L 60.013977 276.334125 
L 60.013977 276.334125 
L 60.013977 34.414125 
L 60.013977 34.414125 
" clip-path="url(#p8b31655ea4)" style="fill: none; stroke: #f4ae3d; stroke-width: 1.5; stroke-linecap: square"/>
   </g>
   <g id="patch_3">
    <path d="M 43.78125 288.430125 
L 43.78125 22.318125 
" style="fill: none; stroke: #000000; stroke-width: 0.8; stroke-linejoin: miter; stroke-linecap: square"/>
   </g>
   <g id="patch_4">
    <path d="M 43.78125 288.430125 
L 400.90125 288.430125 
" style="fill: none; stroke: #000000; stroke-width: 0.8; stroke-linejoin: miter; stroke-linecap: square"/>
   </g>
   <g id="text_15">
    <!-- Precision-Recall Curve -->
    <g transform="translate(155.89875 16.318125) scale(0.12 -0.12)">
     <defs>
      <path id="DejaVuSans-2d" d="M 313 2009 
L 1997 2009 
L 1997 1497 
L 313 1497 
L 313 2009 
z
" transform="scale(0.015625)"/>
      <path id="DejaVuSans-20" transform="scale(0.015625)"/>
      <path id="DejaVuSans-43" d="M 4122 4306 
L 4122 3641 
Q 3803 3938 3442 4084 
Q 3081 4231 2675 4231 
Q 1875 4231 1450 3742 
Q 1025 3253 1025 2328 
Q 1025 1406 1450 917 
Q 1875 428 2675 428 
Q 3081 428 3442 575 
Q 3803 722 4122 1019 
L 4122 359 
Q 3791 134 3420 21 
Q 3050 -91 2638 -91 
Q 1578 -91 968 557 
Q 359 1206 359 2328 
Q 359 3453 968 4101 
Q 1578 4750 2638 4750 
Q 3056 4750 3426 4639 
Q 3797 4528 4122 4306 
z
" transform="scale(0.015625)"/>
      <path id="DejaVuSans-75" d="M 544 1381 
L 544 3500 
L 1119 3500 
L 1119 1403 
Q 1119 906 1312 657 
Q 1506 409 1894 409 
Q 2359 409 2629 706 
Q 2900 1003 2900 1516 
L 2900 3500 
L 3475 3500 
L 3475 0 
L 2900 0 
L 2900 538 
Q 2691 219 2414 64 
Q 2138 -91 1772 -91 
Q 1169 -91 856 284 
Q 544 659 544 1381 
z
M 1991 3584 
L 1991 3584 
z
" transform="scale(0.015625)"/>
      <path id="DejaVuSans-76" d="M 191 3500 
L 800 3500 
L 1894 563 
L 2988 3500 
L 3597 3500 
L 2284 0 
L 1503 0 
L 191 3500 
z
" transform="scale(0.015625)"/>
     </defs>
     <use xlink:href="#DejaVuSans-50"/>
     <use xlink:href="#DejaVuSans-72" x="58.552734"/>
     <use xlink:href="#DejaVuSans-65" x="97.416016"/>
     <use xlink:href="#DejaVuSans-63" x="158.939453"/>
     <use xlink:href="#DejaVuSans-69" x="213.919922"/>
     <use xlink:href="#DejaVuSans-73" x="241.703125"/>
     <use xlink:href="#DejaVuSans-69" x="293.802734"/>
     <use xlink:href="#DejaVuSans-6f" x="321.585938"/>
     <use xlink:href="#DejaVuSans-6e" x="382.767578"/>
     <use xlink:href="#DejaVuSans-2d" x="446.146484"/>
     <use xlink:href="#DejaVuSans-52" x="482.230469"/>
     <use xlink:href="#DejaVuSans-65" x="547.212891"/>
     <use xlink:href="#DejaVuSans-63" x="608.736328"/>
     <use xlink:href="#DejaVuSans-61" x="663.716797"/>
     <use xlink:href="#DejaVuSans-6c" x="724.996094"/>
     <use xlink:href="#DejaVuSans-6c" x="752.779297"/>
     <use xlink:href="#DejaVuSans-20" x="780.5625"/>
     <use xlink:href="#DejaVuSans-43" x="812.349609"/>
     <use xlink:href="#DejaVuSans-75" x="882.173828"/>
     <use xlink:href="#DejaVuSans-72" x="945.552734"/>
     <use xlink:href="#DejaVuSans-76" x="986.666016"/>
     <use xlink:href="#DejaVuSans-65" x="1045.845703"/>
    </g>
   </g>
   <g id="legend_1">
    <g id="patch_5">
     <path d="M 75.807656 351.303175 
L 368.874844 351.303175 
Q 370.874844 351.303175 370.874844 349.303175 
L 370.874844 335.346925 
Q 370.874844 333.346925 368.874844 333.346925 
L 75.807656 333.346925 
Q 73.807656 333.346925 73.807656 335.346925 
L 73.807656 349.303175 
Q 73.807656 351.303175 75.807656 351.303175 
z
" style="fill: #ffffff; opacity: 0.8; stroke: #cccccc; stroke-linejoin: miter"/>
    </g>
    <g id="line2d_14">
     <path d="M 77.807656 341.445362 
L 87.807656 341.445362 
L 97.807656 341.445362 
" style="fill: none; stroke: #f4ae3d; stroke-width: 1.5; stroke-linecap: square"/>
    </g>
    <g id="text_16">
     <!-- run_identifier_1 Precision-Recall Curve (AUC = 0.06) -->
     <g transform="translate(105.807656 344.945362) scale(0.1 -0.1)">
      <defs>
       <path id="DejaVuSans-5f" d="M 3263 -1063 
L 3263 -1509 
L -63 -1509 
L -63 -1063 
L 3263 -1063 
z
" transform="scale(0.015625)"/>
       <path id="DejaVuSans-64" d="M 2906 2969 
L 2906 4863 
L 3481 4863 
L 3481 0 
L 2906 0 
L 2906 525 
Q 2725 213 2448 61 
Q 2172 -91 1784 -91 
Q 1150 -91 751 415 
Q 353 922 353 1747 
Q 353 2572 751 3078 
Q 1150 3584 1784 3584 
Q 2172 3584 2448 3432 
Q 2725 3281 2906 2969 
z
M 947 1747 
Q 947 1113 1208 752 
Q 1469 391 1925 391 
Q 2381 391 2643 752 
Q 2906 1113 2906 1747 
Q 2906 2381 2643 2742 
Q 2381 3103 1925 3103 
Q 1469 3103 1208 2742 
Q 947 2381 947 1747 
z
" transform="scale(0.015625)"/>
       <path id="DejaVuSans-74" d="M 1172 4494 
L 1172 3500 
L 2356 3500 
L 2356 3053 
L 1172 3053 
L 1172 1153 
Q 1172 725 1289 603 
Q 1406 481 1766 481 
L 2356 481 
L 2356 0 
L 1766 0 
Q 1100 0 847 248 
Q 594 497 594 1153 
L 594 3053 
L 172 3053 
L 172 3500 
L 594 3500 
L 594 4494 
L 1172 4494 
z
" transform="scale(0.015625)"/>
       <path id="DejaVuSans-66" d="M 2375 4863 
L 2375 4384 
L 1825 4384 
Q 1516 4384 1395 4259 
Q 1275 4134 1275 3809 
L 1275 3500 
L 2222 3500 
L 2222 3053 
L 1275 3053 
L 1275 0 
L 697 0 
L 697 3053 
L 147 3053 
L 147 3500 
L 697 3500 
L 697 3744 
Q 697 4328 969 4595 
Q 1241 4863 1831 4863 
L 2375 4863 
z
" transform="scale(0.015625)"/>
       <path id="DejaVuSans-28" d="M 1984 4856 
Q 1566 4138 1362 3434 
Q 1159 2731 1159 2009 
Q 1159 1288 1364 580 
Q 1569 -128 1984 -844 
L 1484 -844 
Q 1016 -109 783 600 
Q 550 1309 550 2009 
Q 550 2706 781 3412 
Q 1013 4119 1484 4856 
L 1984 4856 
z
" transform="scale(0.015625)"/>
       <path id="DejaVuSans-41" d="M 2188 4044 
L 1331 1722 
L 3047 1722 
L 2188 4044 
z
M 1831 4666 
L 2547 4666 
L 4325 0 
L 3669 0 
L 3244 1197 
L 1141 1197 
L 716 0 
L 50 0 
L 1831 4666 
z
" transform="scale(0.015625)"/>
       <path id="DejaVuSans-55" d="M 556 4666 
L 1191 4666 
L 1191 1831 
Q 1191 1081 1462 751 
Q 1734 422 2344 422 
Q 2950 422 3222 751 
Q 3494 1081 3494 1831 
L 3494 4666 
L 4128 4666 
L 4128 1753 
Q 4128 841 3676 375 
Q 3225 -91 2344 -91 
Q 1459 -91 1007 375 
Q 556 841 556 1753 
L 556 4666 
z
" transform="scale(0.015625)"/>
       <path id="DejaVuSans-3d" d="M 678 2906 
L 4684 2906 
L 4684 2381 
L 678 2381 
L 678 2906 
z
M 678 1631 
L 4684 1631 
L 4684 1100 
L 678 1100 
L 678 1631 
z
" transform="scale(0.015625)"/>
       <path id="DejaVuSans-29" d="M 513 4856 
L 1013 4856 
Q 1481 4119 1714 3412 
Q 1947 2706 1947 2009 
Q 1947 1309 1714 600 
Q 1481 -109 1013 -844 
L 513 -844 
Q 928 -128 1133 580 
Q 1338 1288 1338 2009 
Q 1338 2731 1133 3434 
Q 928 4138 513 4856 
z
" transform="scale(0.015625)"/>
      </defs>
      <use xlink:href="#DejaVuSans-72"/>
      <use xlink:href="#DejaVuSans-75" x="41.113281"/>
      <use xlink:href="#DejaVuSans-6e" x="104.492188"/>
      <use xlink:href="#DejaVuSans-5f" x="167.871094"/>
      <use xlink:href="#DejaVuSans-69" x="217.871094"/>
      <use xlink:href="#DejaVuSans-64" x="245.654297"/>
      <use xlink:href="#DejaVuSans-65" x="309.130859"/>
      <use xlink:href="#DejaVuSans-6e" x="370.654297"/>
      <use xlink:href="#DejaVuSans-74" x="434.033203"/>
      <use xlink:href="#DejaVuSans-69" x="473.242188"/>
      <use xlink:href="#DejaVuSans-66" x="501.025391"/>
      <use xlink:href="#DejaVuSans-69" x="536.230469"/>
      <use xlink:href="#DejaVuSans-65" x="564.013672"/>
      <use xlink:href="#DejaVuSans-72" x="625.537109"/>
      <use xlink:href="#DejaVuSans-5f" x="666.650391"/>
      <use xlink:href="#DejaVuSans-31" x="716.650391"/>
      <use xlink:href="#DejaVuSans-20" x="780.273438"/>
      <use xlink:href="#DejaVuSans-50" x="812.060547"/>
      <use xlink:href="#DejaVuSans-72" x="870.613281"/>
      <use xlink:href="#DejaVuSans-65" x="909.476562"/>
      <use xlink:href="#DejaVuSans-63" x="971"/>
      <use xlink:href="#DejaVuSans-69" x="1025.980469"/>
      <use xlink:href="#DejaVuSans-73" x="1053.763672"/>
      <use xlink:href="#DejaVuSans-69" x="1105.863281"/>
      <use xlink:href="#DejaVuSans-6f" x="1133.646484"/>
      <use xlink:href="#DejaVuSans-6e" x="1194.828125"/>
      <use xlink:href="#DejaVuSans-2d" x="1258.207031"/>
      <use xlink:href="#DejaVuSans-52" x="1294.291016"/>
      <use xlink:href="#DejaVuSans-65" x="1359.273438"/>
      <use xlink:href="#DejaVuSans-63" x="1420.796875"/>
      <use xlink:href="#DejaVuSans-61" x="1475.777344"/>
      <use xlink:href="#DejaVuSans-6c" x="1537.056641"/>
      <use xlink:href="#DejaVuSans-6c" x="1564.839844"/>
      <use xlink:href="#DejaVuSans-20" x="1592.623047"/>
      <use xlink:href="#DejaVuSans-43" x="1624.410156"/>
      <use xlink:href="#DejaVuSans-75" x="1694.234375"/>
      <use xlink:href="#DejaVuSans-72" x="1757.613281"/>
      <use xlink:href="#DejaVuSans-76" x="1798.726562"/>
      <use xlink:href="#DejaVuSans-65" x="1857.90625"/>
      <use xlink:href="#DejaVuSans-20" x="1919.429688"/>
      <use xlink:href="#DejaVuSans-28" x="1951.216797"/>
      <use xlink:href="#DejaVuSans-41" x="1990.230469"/>
      <use xlink:href="#DejaVuSans-55" x="2058.638672"/>
      <use xlink:href="#DejaVuSans-43" x="2131.832031"/>
      <use xlink:href="#DejaVuSans-20" x="2201.65625"/>
      <use xlink:href="#DejaVuSans-3d" x="2233.443359"/>
      <use xlink:href="#DejaVuSans-20" x="2317.232422"/>
      <use xlink:href="#DejaVuSans-30" x="2349.019531"/>
      <use xlink:href="#DejaVuSans-2e" x="2412.642578"/>
      <use xlink:href="#DejaVuSans-30" x="2444.429688"/>
      <use xlink:href="#DejaVuSans-36" x="2508.052734"/>
      <use xlink:href="#DejaVuSans-29" x="2571.675781"/>
     </g>
    </g>
   </g>
  </g>
 </g>
 <defs>
  <clipPath id="p8b31655ea4">
   <rect x="43.78125" y="22.318125" width="357.12" height="266.112"/>
  </clipPath>
 </defs>
</svg>
