<?xml version="1.0" encoding="utf-8" standalone="no"?>
<!DOCTYPE svg PUBLIC "-//W3C//DTD SVG 1.1//EN"
  "http://www.w3.org/Graphics/SVG/1.1/DTD/svg11.dtd">
<svg xmlns:xlink="http://www.w3.org/1999/xlink" width="408.10125pt" height="358.503175pt" viewBox="0 0 408.10125 358.503175" xmlns="http://www.w3.org/2000/svg" version="1.1">
 <metadata>
  <rdf:RDF xmlns:dc="http://purl.org/dc/elements/1.1/" xmlns:cc="http://creativecommons.org/ns#" xmlns:rdf="http://www.w3.org/1999/02/22-rdf-syntax-ns#">
   <cc:Work>
    <dc:type rdf:resource="http://purl.org/dc/dcmitype/StillImage"/>
    <dc:date>2024-10-28T09:21:09.538702</dc:date>
    <dc:format>image/svg+xml</dc:format>
    <dc:creator>
     <cc:Agent>
      <dc:title>Matplotlib v3.9.2, https://matplotlib.org/</dc:title>
     </cc:Agent>
    </dc:creator>
   </cc:Work>
  </rdf:RDF>
 </metadata>
 <defs>
  <style type="text/css">*{stroke-linejoin: round; stroke-linecap: butt}</style>
 </defs>
 <g id="figure_1">
  <g id="patch_1">
   <path d="M 0 358.503175 
L 408.10125 358.503175 
L 408.10125 -0 
L 0 -0 
z
" style="fill: #ffffff"/>
  </g>
  <g id="axes_1">
   <g id="patch_2">
    <path d="M 43.78125 288.430125 
L 400.90125 288.430125 
L 400.90125 22.318125 
L 43.78125 22.318125 
z
" style="fill: #ffffff"/>
   </g>
   <g id="matplotlib.axis_1">
    <g id="xtick_1">
     <g id="line2d_1">
      <defs>
       <path id="m6e0c0a58e7" d="M 0 0 
L 0 3.5 
" style="stroke: #000000; stroke-width: 0.8"/>
      </defs>
      <g>
       <use xlink:href="#m6e0c0a58e7" x="60.013977" y="288.430125" style="stroke: #000000; stroke-width: 0.8"/>
      </g>
     </g>
     <g id="text_1">
      <!-- 0.0 -->
      <g transform="translate(52.062415 303.028562) scale(0.1 -0.1)">
       <defs>
        <path id="DejaVuSans-30" d="M 2034 4250 
Q 1547 4250 1301 3770 
Q 1056 3291 1056 2328 
Q 1056 1369 1301 889 
Q 1547 409 2034 409 
Q 2525 409 2770 889 
Q 3016 1369 3016 2328 
Q 3016 3291 2770 3770 
Q 2525 4250 2034 4250 
z
M 2034 4750 
Q 2819 4750 3233 4129 
Q 3647 3509 3647 2328 
Q 3647 1150 3233 529 
Q 2819 -91 2034 -91 
Q 1250 -91 836 529 
Q 422 1150 422 2328 
Q 422 3509 836 4129 
Q 1250 4750 2034 4750 
z
" transform="scale(0.015625)"/>
        <path id="DejaVuSans-2e" d="M 684 794 
L 1344 794 
L 1344 0 
L 684 0 
L 684 794 
z
" transform="scale(0.015625)"/>
       </defs>
       <use xlink:href="#DejaVuSans-30"/>
       <use xlink:href="#DejaVuSans-2e" x="63.623047"/>
       <use xlink:href="#DejaVuSans-30" x="95.410156"/>
      </g>
     </g>
    </g>
    <g id="xtick_2">
     <g id="line2d_2">
      <g>
       <use xlink:href="#m6e0c0a58e7" x="124.944886" y="288.430125" style="stroke: #000000; stroke-width: 0.8"/>
      </g>
     </g>
     <g id="text_2">
      <!-- 0.2 -->
      <g transform="translate(116.993324 303.028562) scale(0.1 -0.1)">
       <defs>
        <path id="DejaVuSans-32" d="M 1228 531 
L 3431 531 
L 3431 0 
L 469 0 
L 469 531 
Q 828 903 1448 1529 
Q 2069 2156 2228 2338 
Q 2531 2678 2651 2914 
Q 2772 3150 2772 3378 
Q 2772 3750 2511 3984 
Q 2250 4219 1831 4219 
Q 1534 4219 1204 4116 
Q 875 4013 500 3803 
L 500 4441 
Q 881 4594 1212 4672 
Q 1544 4750 1819 4750 
Q 2544 4750 2975 4387 
Q 3406 4025 3406 3419 
Q 3406 3131 3298 2873 
Q 3191 2616 2906 2266 
Q 2828 2175 2409 1742 
Q 1991 1309 1228 531 
z
" transform="scale(0.015625)"/>
       </defs>
       <use xlink:href="#DejaVuSans-30"/>
       <use xlink:href="#DejaVuSans-2e" x="63.623047"/>
       <use xlink:href="#DejaVuSans-32" x="95.410156"/>
      </g>
     </g>
    </g>
    <g id="xtick_3">
     <g id="line2d_3">
      <g>
       <use xlink:href="#m6e0c0a58e7" x="189.875795" y="288.430125" style="stroke: #000000; stroke-width: 0.8"/>
      </g>
     </g>
     <g id="text_3">
      <!-- 0.4 -->
      <g transform="translate(181.924233 303.028562) scale(0.1 -0.1)">
       <defs>
        <path id="DejaVuSans-34" d="M 2419 4116 
L 825 1625 
L 2419 1625 
L 2419 4116 
z
M 2253 4666 
L 3047 4666 
L 3047 1625 
L 3713 1625 
L 3713 1100 
L 3047 1100 
L 3047 0 
L 2419 0 
L 2419 1100 
L 313 1100 
L 313 1709 
L 2253 4666 
z
" transform="scale(0.015625)"/>
       </defs>
       <use xlink:href="#DejaVuSans-30"/>
       <use xlink:href="#DejaVuSans-2e" x="63.623047"/>
       <use xlink:href="#DejaVuSans-34" x="95.410156"/>
      </g>
     </g>
    </g>
    <g id="xtick_4">
     <g id="line2d_4">
      <g>
       <use xlink:href="#m6e0c0a58e7" x="254.806705" y="288.430125" style="stroke: #000000; stroke-width: 0.8"/>
      </g>
     </g>
     <g id="text_4">
      <!-- 0.6 -->
      <g transform="translate(246.855142 303.028562) scale(0.1 -0.1)">
       <defs>
        <path id="DejaVuSans-36" d="M 2113 2584 
Q 1688 2584 1439 2293 
Q 1191 2003 1191 1497 
Q 1191 994 1439 701 
Q 1688 409 2113 409 
Q 2538 409 2786 701 
Q 3034 994 3034 1497 
Q 3034 2003 2786 2293 
Q 2538 2584 2113 2584 
z
M 3366 4563 
L 3366 3988 
Q 3128 4100 2886 4159 
Q 2644 4219 2406 4219 
Q 1781 4219 1451 3797 
Q 1122 3375 1075 2522 
Q 1259 2794 1537 2939 
Q 1816 3084 2150 3084 
Q 2853 3084 3261 2657 
Q 3669 2231 3669 1497 
Q 3669 778 3244 343 
Q 2819 -91 2113 -91 
Q 1303 -91 875 529 
Q 447 1150 447 2328 
Q 447 3434 972 4092 
Q 1497 4750 2381 4750 
Q 2619 4750 2861 4703 
Q 3103 4656 3366 4563 
z
" transform="scale(0.015625)"/>
       </defs>
       <use xlink:href="#DejaVuSans-30"/>
       <use xlink:href="#DejaVuSans-2e" x="63.623047"/>
       <use xlink:href="#DejaVuSans-36" x="95.410156"/>
      </g>
     </g>
    </g>
    <g id="xtick_5">
     <g id="line2d_5">
      <g>
       <use xlink:href="#m6e0c0a58e7" x="319.737614" y="288.430125" style="stroke: #000000; stroke-width: 0.8"/>
      </g>
     </g>
     <g id="text_5">
      <!-- 0.8 -->
      <g transform="translate(311.786051 303.028562) scale(0.1 -0.1)">
       <defs>
        <path id="DejaVuSans-38" d="M 2034 2216 
Q 1584 2216 1326 1975 
Q 1069 1734 1069 1313 
Q 1069 891 1326 650 
Q 1584 409 2034 409 
Q 2484 409 2743 651 
Q 3003 894 3003 1313 
Q 3003 1734 2745 1975 
Q 2488 2216 2034 2216 
z
M 1403 2484 
Q 997 2584 770 2862 
Q 544 3141 544 3541 
Q 544 4100 942 4425 
Q 1341 4750 2034 4750 
Q 2731 4750 3128 4425 
Q 3525 4100 3525 3541 
Q 3525 3141 3298 2862 
Q 3072 2584 2669 2484 
Q 3125 2378 3379 2068 
Q 3634 1759 3634 1313 
Q 3634 634 3220 271 
Q 2806 -91 2034 -91 
Q 1263 -91 848 271 
Q 434 634 434 1313 
Q 434 1759 690 2068 
Q 947 2378 1403 2484 
z
M 1172 3481 
Q 1172 3119 1398 2916 
Q 1625 2713 2034 2713 
Q 2441 2713 2670 2916 
Q 2900 3119 2900 3481 
Q 2900 3844 2670 4047 
Q 2441 4250 2034 4250 
Q 1625 4250 1398 4047 
Q 1172 3844 1172 3481 
z
" transform="scale(0.015625)"/>
       </defs>
       <use xlink:href="#DejaVuSans-30"/>
       <use xlink:href="#DejaVuSans-2e" x="63.623047"/>
       <use xlink:href="#DejaVuSans-38" x="95.410156"/>
      </g>
     </g>
    </g>
    <g id="xtick_6">
     <g id="line2d_6">
      <g>
       <use xlink:href="#m6e0c0a58e7" x="384.668523" y="288.430125" style="stroke: #000000; stroke-width: 0.8"/>
      </g>
     </g>
     <g id="text_6">
      <!-- 1.0 -->
      <g transform="translate(376.71696 303.028562) scale(0.1 -0.1)">
       <defs>
        <path id="DejaVuSans-31" d="M 794 531 
L 1825 531 
L 1825 4091 
L 703 3866 
L 703 4441 
L 1819 4666 
L 2450 4666 
L 2450 531 
L 3481 531 
L 3481 0 
L 794 0 
L 794 531 
z
" transform="scale(0.015625)"/>
       </defs>
       <use xlink:href="#DejaVuSans-31"/>
       <use xlink:href="#DejaVuSans-2e" x="63.623047"/>
       <use xlink:href="#DejaVuSans-30" x="95.410156"/>
      </g>
     </g>
    </g>
    <g id="text_7">
     <!-- False Positive Rate -->
     <g transform="translate(175.874844 316.706687) scale(0.1 -0.1)">
      <defs>
       <path id="DejaVuSans-46" d="M 628 4666 
L 3309 4666 
L 3309 4134 
L 1259 4134 
L 1259 2759 
L 3109 2759 
L 3109 2228 
L 1259 2228 
L 1259 0 
L 628 0 
L 628 4666 
z
" transform="scale(0.015625)"/>
       <path id="DejaVuSans-61" d="M 2194 1759 
Q 1497 1759 1228 1600 
Q 959 1441 959 1056 
Q 959 750 1161 570 
Q 1363 391 1709 391 
Q 2188 391 2477 730 
Q 2766 1069 2766 1631 
L 2766 1759 
L 2194 1759 
z
M 3341 1997 
L 3341 0 
L 2766 0 
L 2766 531 
Q 2569 213 2275 61 
Q 1981 -91 1556 -91 
Q 1019 -91 701 211 
Q 384 513 384 1019 
Q 384 1609 779 1909 
Q 1175 2209 1959 2209 
L 2766 2209 
L 2766 2266 
Q 2766 2663 2505 2880 
Q 2244 3097 1772 3097 
Q 1472 3097 1187 3025 
Q 903 2953 641 2809 
L 641 3341 
Q 956 3463 1253 3523 
Q 1550 3584 1831 3584 
Q 2591 3584 2966 3190 
Q 3341 2797 3341 1997 
z
" transform="scale(0.015625)"/>
       <path id="DejaVuSans-6c" d="M 603 4863 
L 1178 4863 
L 1178 0 
L 603 0 
L 603 4863 
z
" transform="scale(0.015625)"/>
       <path id="DejaVuSans-73" d="M 2834 3397 
L 2834 2853 
Q 2591 2978 2328 3040 
Q 2066 3103 1784 3103 
Q 1356 3103 1142 2972 
Q 928 2841 928 2578 
Q 928 2378 1081 2264 
Q 1234 2150 1697 2047 
L 1894 2003 
Q 2506 1872 2764 1633 
Q 3022 1394 3022 966 
Q 3022 478 2636 193 
Q 2250 -91 1575 -91 
Q 1294 -91 989 -36 
Q 684 19 347 128 
L 347 722 
Q 666 556 975 473 
Q 1284 391 1588 391 
Q 1994 391 2212 530 
Q 2431 669 2431 922 
Q 2431 1156 2273 1281 
Q 2116 1406 1581 1522 
L 1381 1569 
Q 847 1681 609 1914 
Q 372 2147 372 2553 
Q 372 3047 722 3315 
Q 1072 3584 1716 3584 
Q 2034 3584 2315 3537 
Q 2597 3491 2834 3397 
z
" transform="scale(0.015625)"/>
       <path id="DejaVuSans-65" d="M 3597 1894 
L 3597 1613 
L 953 1613 
Q 991 1019 1311 708 
Q 1631 397 2203 397 
Q 2534 397 2845 478 
Q 3156 559 3463 722 
L 3463 178 
Q 3153 47 2828 -22 
Q 2503 -91 2169 -91 
Q 1331 -91 842 396 
Q 353 884 353 1716 
Q 353 2575 817 3079 
Q 1281 3584 2069 3584 
Q 2775 3584 3186 3129 
Q 3597 2675 3597 1894 
z
M 3022 2063 
Q 3016 2534 2758 2815 
Q 2500 3097 2075 3097 
Q 1594 3097 1305 2825 
Q 1016 2553 972 2059 
L 3022 2063 
z
" transform="scale(0.015625)"/>
       <path id="DejaVuSans-20" transform="scale(0.015625)"/>
       <path id="DejaVuSans-50" d="M 1259 4147 
L 1259 2394 
L 2053 2394 
Q 2494 2394 2734 2622 
Q 2975 2850 2975 3272 
Q 2975 3691 2734 3919 
Q 2494 4147 2053 4147 
L 1259 4147 
z
M 628 4666 
L 2053 4666 
Q 2838 4666 3239 4311 
Q 3641 3956 3641 3272 
Q 3641 2581 3239 2228 
Q 2838 1875 2053 1875 
L 1259 1875 
L 1259 0 
L 628 0 
L 628 4666 
z
" transform="scale(0.015625)"/>
       <path id="DejaVuSans-6f" d="M 1959 3097 
Q 1497 3097 1228 2736 
Q 959 2375 959 1747 
Q 959 1119 1226 758 
Q 1494 397 1959 397 
Q 2419 397 2687 759 
Q 2956 1122 2956 1747 
Q 2956 2369 2687 2733 
Q 2419 3097 1959 3097 
z
M 1959 3584 
Q 2709 3584 3137 3096 
Q 3566 2609 3566 1747 
Q 3566 888 3137 398 
Q 2709 -91 1959 -91 
Q 1206 -91 779 398 
Q 353 888 353 1747 
Q 353 2609 779 3096 
Q 1206 3584 1959 3584 
z
" transform="scale(0.015625)"/>
       <path id="DejaVuSans-69" d="M 603 3500 
L 1178 3500 
L 1178 0 
L 603 0 
L 603 3500 
z
M 603 4863 
L 1178 4863 
L 1178 4134 
L 603 4134 
L 603 4863 
z
" transform="scale(0.015625)"/>
       <path id="DejaVuSans-74" d="M 1172 4494 
L 1172 3500 
L 2356 3500 
L 2356 3053 
L 1172 3053 
L 1172 1153 
Q 1172 725 1289 603 
Q 1406 481 1766 481 
L 2356 481 
L 2356 0 
L 1766 0 
Q 1100 0 847 248 
Q 594 497 594 1153 
L 594 3053 
L 172 3053 
L 172 3500 
L 594 3500 
L 594 4494 
L 1172 4494 
z
" transform="scale(0.015625)"/>
       <path id="DejaVuSans-76" d="M 191 3500 
L 800 3500 
L 1894 563 
L 2988 3500 
L 3597 3500 
L 2284 0 
L 1503 0 
L 191 3500 
z
" transform="scale(0.015625)"/>
       <path id="DejaVuSans-52" d="M 2841 2188 
Q 3044 2119 3236 1894 
Q 3428 1669 3622 1275 
L 4263 0 
L 3584 0 
L 2988 1197 
Q 2756 1666 2539 1819 
Q 2322 1972 1947 1972 
L 1259 1972 
L 1259 0 
L 628 0 
L 628 4666 
L 2053 4666 
Q 2853 4666 3247 4331 
Q 3641 3997 3641 3322 
Q 3641 2881 3436 2590 
Q 3231 2300 2841 2188 
z
M 1259 4147 
L 1259 2491 
L 2053 2491 
Q 2509 2491 2742 2702 
Q 2975 2913 2975 3322 
Q 2975 3731 2742 3939 
Q 2509 4147 2053 4147 
L 1259 4147 
z
" transform="scale(0.015625)"/>
      </defs>
      <use xlink:href="#DejaVuSans-46"/>
      <use xlink:href="#DejaVuSans-61" x="48.394531"/>
      <use xlink:href="#DejaVuSans-6c" x="109.673828"/>
      <use xlink:href="#DejaVuSans-73" x="137.457031"/>
      <use xlink:href="#DejaVuSans-65" x="189.556641"/>
      <use xlink:href="#DejaVuSans-20" x="251.080078"/>
      <use xlink:href="#DejaVuSans-50" x="282.867188"/>
      <use xlink:href="#DejaVuSans-6f" x="339.544922"/>
      <use xlink:href="#DejaVuSans-73" x="400.726562"/>
      <use xlink:href="#DejaVuSans-69" x="452.826172"/>
      <use xlink:href="#DejaVuSans-74" x="480.609375"/>
      <use xlink:href="#DejaVuSans-69" x="519.818359"/>
      <use xlink:href="#DejaVuSans-76" x="547.601562"/>
      <use xlink:href="#DejaVuSans-65" x="606.78125"/>
      <use xlink:href="#DejaVuSans-20" x="668.304688"/>
      <use xlink:href="#DejaVuSans-52" x="700.091797"/>
      <use xlink:href="#DejaVuSans-61" x="767.324219"/>
      <use xlink:href="#DejaVuSans-74" x="828.603516"/>
      <use xlink:href="#DejaVuSans-65" x="867.8125"/>
     </g>
    </g>
   </g>
   <g id="matplotlib.axis_2">
    <g id="ytick_1">
     <g id="line2d_7">
      <defs>
       <path id="mb5456ab2bc" d="M 0 0 
L -3.5 0 
" style="stroke: #000000; stroke-width: 0.8"/>
      </defs>
      <g>
       <use xlink:href="#mb5456ab2bc" x="43.78125" y="276.334125" style="stroke: #000000; stroke-width: 0.8"/>
      </g>
     </g>
     <g id="text_8">
      <!-- 0.0 -->
      <g transform="translate(20.878125 280.133344) scale(0.1 -0.1)">
       <use xlink:href="#DejaVuSans-30"/>
       <use xlink:href="#DejaVuSans-2e" x="63.623047"/>
       <use xlink:href="#DejaVuSans-30" x="95.410156"/>
      </g>
     </g>
    </g>
    <g id="ytick_2">
     <g id="line2d_8">
      <g>
       <use xlink:href="#mb5456ab2bc" x="43.78125" y="227.950125" style="stroke: #000000; stroke-width: 0.8"/>
      </g>
     </g>
     <g id="text_9">
      <!-- 0.2 -->
      <g transform="translate(20.878125 231.749344) scale(0.1 -0.1)">
       <use xlink:href="#DejaVuSans-30"/>
       <use xlink:href="#DejaVuSans-2e" x="63.623047"/>
       <use xlink:href="#DejaVuSans-32" x="95.410156"/>
      </g>
     </g>
    </g>
    <g id="ytick_3">
     <g id="line2d_9">
      <g>
       <use xlink:href="#mb5456ab2bc" x="43.78125" y="179.566125" style="stroke: #000000; stroke-width: 0.8"/>
      </g>
     </g>
     <g id="text_10">
      <!-- 0.4 -->
      <g transform="translate(20.878125 183.365344) scale(0.1 -0.1)">
       <use xlink:href="#DejaVuSans-30"/>
       <use xlink:href="#DejaVuSans-2e" x="63.623047"/>
       <use xlink:href="#DejaVuSans-34" x="95.410156"/>
      </g>
     </g>
    </g>
    <g id="ytick_4">
     <g id="line2d_10">
      <g>
       <use xlink:href="#mb5456ab2bc" x="43.78125" y="131.182125" style="stroke: #000000; stroke-width: 0.8"/>
      </g>
     </g>
     <g id="text_11">
      <!-- 0.6 -->
      <g transform="translate(20.878125 134.981344) scale(0.1 -0.1)">
       <use xlink:href="#DejaVuSans-30"/>
       <use xlink:href="#DejaVuSans-2e" x="63.623047"/>
       <use xlink:href="#DejaVuSans-36" x="95.410156"/>
      </g>
     </g>
    </g>
    <g id="ytick_5">
     <g id="line2d_11">
      <g>
       <use xlink:href="#mb5456ab2bc" x="43.78125" y="82.798125" style="stroke: #000000; stroke-width: 0.8"/>
      </g>
     </g>
     <g id="text_12">
      <!-- 0.8 -->
      <g transform="translate(20.878125 86.597344) scale(0.1 -0.1)">
       <use xlink:href="#DejaVuSans-30"/>
       <use xlink:href="#DejaVuSans-2e" x="63.623047"/>
       <use xlink:href="#DejaVuSans-38" x="95.410156"/>
      </g>
     </g>
    </g>
    <g id="ytick_6">
     <g id="line2d_12">
      <g>
       <use xlink:href="#mb5456ab2bc" x="43.78125" y="34.414125" style="stroke: #000000; stroke-width: 0.8"/>
      </g>
     </g>
     <g id="text_13">
      <!-- 1.0 -->
      <g transform="translate(20.878125 38.213344) scale(0.1 -0.1)">
       <use xlink:href="#DejaVuSans-31"/>
       <use xlink:href="#DejaVuSans-2e" x="63.623047"/>
       <use xlink:href="#DejaVuSans-30" x="95.410156"/>
      </g>
     </g>
    </g>
    <g id="text_14">
     <!-- True Positive Rate -->
     <g transform="translate(14.798438 199.903812) rotate(-90) scale(0.1 -0.1)">
      <defs>
       <path id="DejaVuSans-54" d="M -19 4666 
L 3928 4666 
L 3928 4134 
L 2272 4134 
L 2272 0 
L 1638 0 
L 1638 4134 
L -19 4134 
L -19 4666 
z
" transform="scale(0.015625)"/>
       <path id="DejaVuSans-72" d="M 2631 2963 
Q 2534 3019 2420 3045 
Q 2306 3072 2169 3072 
Q 1681 3072 1420 2755 
Q 1159 2438 1159 1844 
L 1159 0 
L 581 0 
L 581 3500 
L 1159 3500 
L 1159 2956 
Q 1341 3275 1631 3429 
Q 1922 3584 2338 3584 
Q 2397 3584 2469 3576 
Q 2541 3569 2628 3553 
L 2631 2963 
z
" transform="scale(0.015625)"/>
       <path id="DejaVuSans-75" d="M 544 1381 
L 544 3500 
L 1119 3500 
L 1119 1403 
Q 1119 906 1312 657 
Q 1506 409 1894 409 
Q 2359 409 2629 706 
Q 2900 1003 2900 1516 
L 2900 3500 
L 3475 3500 
L 3475 0 
L 2900 0 
L 2900 538 
Q 2691 219 2414 64 
Q 2138 -91 1772 -91 
Q 1169 -91 856 284 
Q 544 659 544 1381 
z
M 1991 3584 
L 1991 3584 
z
" transform="scale(0.015625)"/>
      </defs>
      <use xlink:href="#DejaVuSans-54"/>
      <use xlink:href="#DejaVuSans-72" x="46.333984"/>
      <use xlink:href="#DejaVuSans-75" x="87.447266"/>
      <use xlink:href="#DejaVuSans-65" x="150.826172"/>
      <use xlink:href="#DejaVuSans-20" x="212.349609"/>
      <use xlink:href="#DejaVuSans-50" x="244.136719"/>
      <use xlink:href="#DejaVuSans-6f" x="300.814453"/>
      <use xlink:href="#DejaVuSans-73" x="361.996094"/>
      <use xlink:href="#DejaVuSans-69" x="414.095703"/>
      <use xlink:href="#DejaVuSans-74" x="441.878906"/>
      <use xlink:href="#DejaVuSans-69" x="481.087891"/>
      <use xlink:href="#DejaVuSans-76" x="508.871094"/>
      <use xlink:href="#DejaVuSans-65" x="568.050781"/>
      <use xlink:href="#DejaVuSans-20" x="629.574219"/>
      <use xlink:href="#DejaVuSans-52" x="661.361328"/>
      <use xlink:href="#DejaVuSans-61" x="728.59375"/>
      <use xlink:href="#DejaVuSans-74" x="789.873047"/>
      <use xlink:href="#DejaVuSans-65" x="829.082031"/>
     </g>
    </g>
   </g>
   <g id="line2d_13">
    <path d="M 60.013977 276.334125 
L 61.363191 276.334125 
L 61.363191 275.705761 
L 61.475625 275.705761 
L 61.475625 275.077398 
L 61.869146 275.077398 
L 61.869146 274.449034 
L 62.881056 274.449034 
L 62.881056 273.82067 
L 65.24218 273.82067 
L 65.24218 273.192307 
L 66.254091 273.192307 
L 66.254091 272.563943 
L 66.928697 272.563943 
L 66.928697 271.93558 
L 69.233604 271.93558 
L 69.233604 271.307216 
L 70.189297 271.307216 
L 70.189297 270.678852 
L 74.180721 270.678852 
L 74.180721 270.050489 
L 74.293156 270.050489 
L 74.293156 269.422125 
L 75.305066 269.422125 
L 75.305066 268.793761 
L 75.923455 268.793761 
L 75.923455 268.165398 
L 76.822931 268.165398 
L 76.822931 267.537034 
L 77.272669 267.537034 
L 77.272669 266.90867 
L 77.385104 266.90867 
L 77.385104 266.280307 
L 79.352707 266.280307 
L 79.352707 265.651943 
L 79.746228 265.651943 
L 79.746228 265.02358 
L 81.32031 265.02358 
L 81.32031 264.395216 
L 83.96252 264.395216 
L 83.96252 263.766852 
L 84.524693 263.766852 
L 84.524693 263.138489 
L 85.817689 263.138489 
L 85.817689 262.510125 
L 86.829599 262.510125 
L 86.829599 261.881761 
L 87.110686 261.881761 
L 87.110686 261.253398 
L 87.560424 261.253398 
L 87.560424 260.625034 
L 88.684768 260.625034 
L 88.684768 259.99667 
L 90.202634 259.99667 
L 90.202634 259.368307 
L 91.383196 259.368307 
L 91.383196 258.739943 
L 93.013496 258.739943 
L 93.013496 258.11158 
L 93.238365 258.11158 
L 93.238365 257.483216 
L 93.856754 257.483216 
L 93.856754 256.854852 
L 94.418927 256.854852 
L 94.418927 256.226489 
L 95.093533 256.226489 
L 95.093533 255.598125 
L 95.430837 255.598125 
L 95.430837 254.969761 
L 97.623309 254.969761 
L 97.623309 254.341398 
L 98.860088 254.341398 
L 98.860088 253.713034 
L 102.401774 253.713034 
L 102.401774 253.08467 
L 104.481812 253.08467 
L 104.538029 251.827943 
L 104.819115 251.827943 
L 104.819115 251.19958 
L 105.212636 251.19958 
L 105.212636 250.571216 
L 106.055895 250.571216 
L 106.055895 249.942852 
L 106.56185 249.942852 
L 106.56185 249.314489 
L 106.786719 249.314489 
L 106.786719 248.686125 
L 107.236457 248.686125 
L 107.236457 248.057761 
L 107.967281 248.057761 
L 107.967281 247.429398 
L 108.698105 247.429398 
L 108.698105 246.801034 
L 110.890577 246.801034 
L 110.890577 246.17267 
L 111.902487 246.17267 
L 111.902487 245.544307 
L 113.701439 245.544307 
L 113.701439 244.915943 
L 115.050653 244.915943 
L 115.050653 244.28758 
L 117.692863 244.28758 
L 117.692863 243.659216 
L 117.973949 243.659216 
L 117.973949 243.030852 
L 119.660466 243.030852 
L 119.660466 242.402489 
L 119.997769 242.402489 
L 119.997769 241.774125 
L 120.335073 241.774125 
L 120.335073 241.145761 
L 121.00968 241.145761 
L 121.00968 240.517398 
L 121.290766 240.517398 
L 121.346983 239.26067 
L 121.740504 239.26067 
L 121.740504 238.632307 
L 122.696197 238.632307 
L 122.696197 238.003943 
L 124.720017 238.003943 
L 124.720017 237.37558 
L 124.832452 237.37558 
L 124.832452 236.747216 
L 126.2941 236.747216 
L 126.2941 236.118852 
L 126.856272 236.118852 
L 126.856272 235.490489 
L 128.261703 235.490489 
L 128.261703 234.862125 
L 128.430355 234.862125 
L 128.430355 234.233761 
L 128.655224 234.233761 
L 128.655224 233.605398 
L 128.93631 233.605398 
L 128.93631 232.977034 
L 129.667134 232.977034 
L 129.667134 232.34867 
L 129.835786 232.34867 
L 129.835786 231.720307 
L 130.735262 231.720307 
L 130.735262 231.091943 
L 131.185 231.091943 
L 131.185 229.835216 
L 132.421779 229.835216 
L 132.421779 229.206852 
L 132.534213 229.206852 
L 132.534213 228.578489 
L 132.871517 228.578489 
L 132.871517 227.950125 
L 133.714775 227.950125 
L 133.714775 227.321761 
L 134.220731 227.321761 
L 134.220731 226.693398 
L 135.063989 226.693398 
L 135.063989 226.065034 
L 135.85103 226.065034 
L 135.85103 225.43667 
L 136.356986 225.43667 
L 136.356986 224.808307 
L 137.706199 224.808307 
L 137.706199 224.179943 
L 138.155937 224.179943 
L 138.155937 223.55158 
L 138.437023 223.55158 
L 138.437023 222.923216 
L 138.830544 222.923216 
L 138.830544 222.294852 
L 138.942978 222.294852 
L 138.942978 221.666489 
L 139.055413 221.666489 
L 139.055413 221.038125 
L 139.842454 221.038125 
L 139.842454 220.409761 
L 140.292192 220.409761 
L 140.292192 219.781398 
L 140.573278 219.781398 
L 140.573278 219.153034 
L 141.304102 219.153034 
L 141.304102 218.52467 
L 142.821968 218.52467 
L 142.821968 217.896307 
L 143.159271 217.896307 
L 143.159271 217.267943 
L 144.114964 217.267943 
L 144.114964 216.63958 
L 144.227399 216.63958 
L 144.227399 216.011216 
L 144.452268 216.011216 
L 144.452268 215.382852 
L 147.993954 215.382852 
L 147.993954 214.754489 
L 150.523729 214.754489 
L 150.523729 213.497761 
L 150.692381 213.497761 
L 150.692381 212.869398 
L 150.861033 212.869398 
L 150.861033 212.241034 
L 150.973467 212.241034 
L 150.973467 211.61267 
L 152.435115 211.61267 
L 152.435115 210.984307 
L 153.334591 210.984307 
L 153.334591 210.355943 
L 154.346501 210.355943 
L 154.346501 209.72758 
L 154.515153 209.72758 
L 154.515153 209.099216 
L 154.683805 209.099216 
L 154.683805 208.470852 
L 154.964891 208.470852 
L 154.964891 207.842489 
L 155.920584 207.842489 
L 155.920584 206.585761 
L 156.763843 206.585761 
L 156.763843 205.957398 
L 156.876277 205.957398 
L 156.876277 205.329034 
L 159.293618 205.329034 
L 159.293618 204.70067 
L 160.08066 204.70067 
L 160.08066 204.072307 
L 161.148787 204.072307 
L 161.148787 203.443943 
L 161.261222 203.443943 
L 161.261222 202.81558 
L 161.429873 202.81558 
L 161.429873 202.187216 
L 162.498001 202.187216 
L 162.498001 201.558852 
L 163.903432 201.558852 
L 163.903432 200.930489 
L 164.521821 200.930489 
L 164.521821 200.302125 
L 166.37699 200.302125 
L 166.37699 199.673761 
L 167.164032 199.673761 
L 167.164032 199.045398 
L 167.501335 199.045398 
L 167.501335 198.417034 
L 169.187852 198.417034 
L 169.187852 197.78867 
L 169.356504 197.78867 
L 169.356504 197.160307 
L 170.874369 197.160307 
L 170.874369 196.531943 
L 171.043021 196.531943 
L 171.099238 195.275216 
L 172.954407 195.275216 
L 172.954407 194.646852 
L 173.235493 194.646852 
L 173.235493 194.018489 
L 173.516579 194.018489 
L 173.516579 193.390125 
L 178.632348 193.390125 
L 178.632348 192.761761 
L 180.599951 192.761761 
L 180.599951 192.133398 
L 180.82482 192.133398 
L 180.82482 191.505034 
L 180.993472 191.505034 
L 180.993472 190.248307 
L 181.611862 190.248307 
L 181.611862 189.619943 
L 185.603285 189.619943 
L 185.603285 188.99158 
L 187.908192 188.99158 
L 187.908192 188.363216 
L 189.875795 188.363216 
L 189.932013 187.106489 
L 191.281226 187.106489 
L 191.281226 186.478125 
L 194.316957 186.478125 
L 194.316957 185.849761 
L 196.453212 185.849761 
L 196.453212 185.221398 
L 196.846733 185.221398 
L 196.846733 184.593034 
L 196.959167 184.593034 
L 196.959167 183.96467 
L 197.577557 183.96467 
L 197.577557 183.336307 
L 198.477033 183.336307 
L 198.477033 182.07958 
L 198.758119 182.07958 
L 198.758119 181.451216 
L 199.376509 181.451216 
L 199.376509 180.194489 
L 201.400329 180.194489 
L 201.400329 179.566125 
L 203.81767 179.566125 
L 203.81767 178.937761 
L 205.335536 178.937761 
L 205.335536 178.309398 
L 205.44797 178.309398 
L 205.504187 177.05267 
L 206.06636 177.05267 
L 206.06636 176.424307 
L 208.202615 176.424307 
L 208.202615 175.795943 
L 208.539918 175.795943 
L 208.539918 175.16758 
L 208.877222 175.16758 
L 208.933439 173.910852 
L 209.383177 173.910852 
L 209.383177 173.282489 
L 209.832915 173.282489 
L 209.832915 172.654125 
L 211.238346 172.654125 
L 211.238346 172.025761 
L 213.262166 172.025761 
L 213.262166 171.397398 
L 214.555163 171.397398 
L 214.555163 170.769034 
L 215.117335 170.769034 
L 215.117335 170.14067 
L 215.735725 170.14067 
L 215.735725 169.512307 
L 217.141156 169.512307 
L 217.141156 168.883943 
L 218.434152 168.883943 
L 218.434152 168.25558 
L 218.940107 168.25558 
L 218.940107 167.627216 
L 219.221193 167.627216 
L 219.221193 166.370489 
L 219.952017 166.370489 
L 219.952017 165.742125 
L 220.626624 165.742125 
L 220.626624 165.113761 
L 221.020145 165.113761 
L 221.020145 164.485398 
L 222.481793 164.485398 
L 222.53801 163.22867 
L 222.594228 163.22867 
L 222.594228 162.600307 
L 223.1564 162.600307 
L 223.1564 161.971943 
L 224.280745 161.971943 
L 224.280745 161.34358 
L 224.393179 161.34358 
L 224.393179 160.086852 
L 225.292655 160.086852 
L 225.292655 158.830125 
L 229.565165 158.830125 
L 229.565165 158.201761 
L 230.68951 158.201761 
L 230.68951 157.573398 
L 231.813854 157.573398 
L 231.813854 156.31667 
L 232.825765 156.31667 
L 232.825765 155.688307 
L 233.725241 155.688307 
L 233.725241 155.059943 
L 235.243106 155.059943 
L 235.243106 154.43158 
L 235.467975 154.43158 
L 235.467975 153.803216 
L 236.086365 153.803216 
L 236.086365 153.174852 
L 236.198799 153.174852 
L 236.198799 152.546489 
L 239.009661 152.546489 
L 239.009661 151.918125 
L 240.921047 151.918125 
L 240.977264 150.661398 
L 241.033481 150.661398 
L 241.033481 150.033034 
L 242.607564 150.033034 
L 242.607564 149.40467 
L 244.462733 149.40467 
L 244.462733 148.776307 
L 244.575167 148.776307 
L 244.631385 147.51958 
L 246.14925 147.51958 
L 246.205467 146.262852 
L 248.060636 146.262852 
L 248.060636 145.634489 
L 248.341722 145.634489 
L 248.341722 145.006125 
L 248.847677 145.006125 
L 248.847677 144.377761 
L 248.960112 144.377761 
L 248.960112 143.749398 
L 249.072546 143.749398 
L 249.072546 143.121034 
L 249.522284 143.121034 
L 249.578501 141.864307 
L 250.983932 141.864307 
L 250.983932 140.60758 
L 251.939625 140.60758 
L 251.939625 139.979216 
L 252.220712 139.979216 
L 252.220712 139.350852 
L 252.895318 139.350852 
L 252.895318 138.094125 
L 253.288839 138.094125 
L 253.288839 137.465761 
L 253.794794 137.465761 
L 253.794794 136.837398 
L 254.69427 136.837398 
L 254.69427 136.209034 
L 255.200225 136.209034 
L 255.200225 135.58067 
L 255.537529 135.58067 
L 255.537529 134.952307 
L 256.493222 134.952307 
L 256.493222 133.69558 
L 257.898653 133.69558 
L 257.898653 133.067216 
L 258.460825 133.067216 
L 258.460825 132.438852 
L 259.022997 132.438852 
L 259.022997 131.810489 
L 259.191649 131.810489 
L 259.191649 131.182125 
L 259.697604 131.182125 
L 259.697604 130.553761 
L 263.351725 130.553761 
L 263.351725 129.925398 
L 264.813373 129.925398 
L 264.813373 129.297034 
L 266.275021 129.297034 
L 266.275021 128.66867 
L 268.467493 128.66867 
L 268.467493 127.411943 
L 268.692362 127.411943 
L 268.692362 126.78358 
L 269.479403 126.78358 
L 269.479403 126.155216 
L 270.659965 126.155216 
L 270.659965 125.526852 
L 271.503224 125.526852 
L 271.503224 124.898489 
L 273.864348 124.898489 
L 273.864348 124.270125 
L 275.269779 124.270125 
L 275.269779 123.641761 
L 275.6633 123.641761 
L 275.6633 123.013398 
L 277.237382 123.013398 
L 277.237382 122.385034 
L 277.630903 122.385034 
L 277.630903 121.75667 
L 278.024424 121.75667 
L 278.024424 121.128307 
L 278.193075 121.128307 
L 278.193075 120.499943 
L 278.642813 120.499943 
L 278.642813 119.87158 
L 279.148768 119.87158 
L 279.148768 119.243216 
L 279.429854 119.243216 
L 279.429854 118.614852 
L 279.710941 118.614852 
L 279.710941 117.986489 
L 280.94772 117.986489 
L 280.94772 117.358125 
L 281.397458 117.358125 
L 281.397458 116.729761 
L 281.790978 116.729761 
L 281.790978 116.101398 
L 282.690454 116.101398 
L 282.690454 115.473034 
L 283.421278 115.473034 
L 283.421278 114.84467 
L 283.927233 114.84467 
L 283.927233 114.216307 
L 284.320754 114.216307 
L 284.320754 113.587943 
L 284.714275 113.587943 
L 284.714275 112.95958 
L 285.164013 112.95958 
L 285.164013 112.331216 
L 287.750006 112.331216 
L 287.806223 111.074489 
L 288.087309 111.074489 
L 288.087309 110.446125 
L 288.424612 110.446125 
L 288.424612 109.817761 
L 289.830043 109.817761 
L 289.830043 109.189398 
L 290.167347 109.189398 
L 290.223564 107.93267 
L 290.448433 107.93267 
L 290.448433 107.304307 
L 290.898171 107.304307 
L 290.898171 106.675943 
L 291.010605 106.675943 
L 291.010605 105.419216 
L 291.460343 105.419216 
L 291.460343 104.790852 
L 291.853864 104.790852 
L 291.853864 104.162489 
L 292.247385 104.162489 
L 292.247385 103.534125 
L 292.640905 103.534125 
L 292.640905 102.277398 
L 293.090643 102.277398 
L 293.090643 101.649034 
L 294.496074 101.649034 
L 294.496074 101.02067 
L 295.283115 101.02067 
L 295.283115 100.392307 
L 298.150195 100.392307 
L 298.150195 99.763943 
L 299.836712 99.763943 
L 299.836712 99.13558 
L 303.884353 99.13558 
L 303.884353 98.507216 
L 304.053004 98.507216 
L 304.053004 97.878852 
L 304.502742 97.878852 
L 304.502742 97.250489 
L 305.064915 97.250489 
L 305.064915 96.622125 
L 306.695215 96.622125 
L 306.695215 95.993761 
L 307.088735 95.993761 
L 307.088735 95.365398 
L 307.538473 95.365398 
L 307.538473 94.737034 
L 307.707125 94.737034 
L 307.707125 93.480307 
L 309.393642 93.480307 
L 309.393642 92.851943 
L 309.506076 92.851943 
L 309.506076 92.22358 
L 310.180683 92.22358 
L 310.180683 91.595216 
L 310.461769 91.595216 
L 310.461769 90.966852 
L 311.529897 90.966852 
L 311.529897 89.710125 
L 311.698549 89.710125 
L 311.698549 89.081761 
L 311.810983 89.081761 
L 311.8672 87.825034 
L 314.228324 87.825034 
L 314.228324 87.19667 
L 314.509411 87.19667 
L 314.509411 85.939943 
L 315.465104 85.939943 
L 315.465104 85.31158 
L 316.027276 85.31158 
L 316.027276 84.683216 
L 316.13971 84.683216 
L 316.13971 84.054852 
L 316.477014 84.054852 
L 316.477014 82.798125 
L 316.701883 82.798125 
L 316.701883 82.169761 
L 318.950572 82.169761 
L 318.950572 80.913034 
L 319.40031 80.913034 
L 319.40031 80.28467 
L 323.2793 80.28467 
L 323.2793 79.656307 
L 324.010124 79.656307 
L 324.010124 79.027943 
L 324.347427 79.027943 
L 324.347427 78.39958 
L 325.022034 78.39958 
L 325.022034 77.771216 
L 326.877203 77.771216 
L 326.877203 77.142852 
L 327.045854 77.142852 
L 327.102072 75.886125 
L 327.889113 75.886125 
L 327.889113 75.257761 
L 328.113982 75.257761 
L 328.113982 74.629398 
L 330.418889 74.629398 
L 330.418889 74.001034 
L 331.20593 74.001034 
L 331.20593 73.37267 
L 332.498927 73.37267 
L 332.498927 72.744307 
L 332.83623 72.744307 
L 332.83623 72.115943 
L 334.185444 72.115943 
L 334.185444 71.48758 
L 335.028702 71.48758 
L 335.028702 70.859216 
L 335.366006 70.859216 
L 335.366006 70.230852 
L 335.759526 70.230852 
L 335.759526 69.602489 
L 336.940088 69.602489 
L 336.940088 68.974125 
L 337.277392 68.974125 
L 337.277392 68.345761 
L 337.389826 68.345761 
L 337.446043 66.46067 
L 338.457954 66.46067 
L 338.457954 65.832307 
L 338.570388 65.832307 
L 338.570388 65.203943 
L 340.032036 65.203943 
L 340.032036 64.57558 
L 341.100164 64.57558 
L 341.156381 62.690489 
L 341.325033 62.690489 
L 341.325033 62.062125 
L 342.168291 62.062125 
L 342.168291 61.433761 
L 342.39316 61.433761 
L 342.39316 60.805398 
L 344.416981 60.805398 
L 344.416981 60.177034 
L 344.754284 60.177034 
L 344.754284 59.54867 
L 345.204022 59.54867 
L 345.204022 58.291943 
L 345.822412 58.291943 
L 345.822412 57.66358 
L 346.721888 57.66358 
L 346.721888 57.035216 
L 347.002974 57.035216 
L 347.002974 56.406852 
L 347.733798 56.406852 
L 347.733798 55.778489 
L 348.071101 55.778489 
L 348.071101 55.150125 
L 348.352187 55.150125 
L 348.352187 54.521761 
L 348.520839 54.521761 
L 348.520839 53.893398 
L 349.532749 53.893398 
L 349.532749 53.265034 
L 353.58039 53.265034 
L 353.58039 52.63667 
L 354.536084 52.63667 
L 354.536084 52.008307 
L 354.81717 52.008307 
L 354.81717 51.379943 
L 356.278818 51.379943 
L 356.278818 50.75158 
L 356.503687 50.75158 
L 356.503687 50.123216 
L 357.571814 50.123216 
L 357.628032 48.866489 
L 358.246421 48.866489 
L 358.246421 48.238125 
L 359.764287 48.238125 
L 359.764287 47.609761 
L 360.551328 47.609761 
L 360.551328 46.981398 
L 361.956759 46.981398 
L 361.956759 46.353034 
L 362.687583 46.353034 
L 362.687583 45.72467 
L 365.38601 45.72467 
L 365.38601 45.096307 
L 365.779531 45.096307 
L 365.779531 44.467943 
L 369.265 44.467943 
L 369.265 43.211216 
L 370.8953 43.211216 
L 370.8953 42.582852 
L 371.569906 42.582852 
L 371.569906 41.326125 
L 373.93103 41.326125 
L 373.93103 40.697761 
L 376.517023 40.697761 
L 376.573241 39.441034 
L 376.741892 39.441034 
L 376.741892 38.81267 
L 376.966761 38.81267 
L 376.966761 38.184307 
L 377.079196 38.184307 
L 377.079196 37.555943 
L 377.472716 37.555943 
L 377.472716 36.92758 
L 381.46414 36.92758 
L 381.46414 36.299216 
L 382.47605 36.299216 
L 382.47605 35.670852 
L 382.700919 35.670852 
L 382.700919 35.042489 
L 384.10635 35.042489 
L 384.10635 34.414125 
L 384.668523 34.414125 
L 384.668523 34.414125 
" clip-path="url(#p3d52d88537)" style="fill: none; stroke: #f4ae3d; stroke-width: 1.5; stroke-linecap: square"/>
   </g>
   <g id="patch_3">
    <path d="M 43.78125 288.430125 
L 43.78125 22.318125 
" style="fill: none; stroke: #000000; stroke-width: 0.8; stroke-linejoin: miter; stroke-linecap: square"/>
   </g>
   <g id="patch_4">
    <path d="M 43.78125 288.430125 
L 400.90125 288.430125 
" style="fill: none; stroke: #000000; stroke-width: 0.8; stroke-linejoin: miter; stroke-linecap: square"/>
   </g>
   <g id="text_15">
    <!-- Receiver Operating Characteristic (ROC) Curve -->
    <g transform="translate(81.55875 16.318125) scale(0.12 -0.12)">
     <defs>
      <path id="DejaVuSans-63" d="M 3122 3366 
L 3122 2828 
Q 2878 2963 2633 3030 
Q 2388 3097 2138 3097 
Q 1578 3097 1268 2742 
Q 959 2388 959 1747 
Q 959 1106 1268 751 
Q 1578 397 2138 397 
Q 2388 397 2633 464 
Q 2878 531 3122 666 
L 3122 134 
Q 2881 22 2623 -34 
Q 2366 -91 2075 -91 
Q 1284 -91 818 406 
Q 353 903 353 1747 
Q 353 2603 823 3093 
Q 1294 3584 2113 3584 
Q 2378 3584 2631 3529 
Q 2884 3475 3122 3366 
z
" transform="scale(0.015625)"/>
      <path id="DejaVuSans-4f" d="M 2522 4238 
Q 1834 4238 1429 3725 
Q 1025 3213 1025 2328 
Q 1025 1447 1429 934 
Q 1834 422 2522 422 
Q 3209 422 3611 934 
Q 4013 1447 4013 2328 
Q 4013 3213 3611 3725 
Q 3209 4238 2522 4238 
z
M 2522 4750 
Q 3503 4750 4090 4092 
Q 4678 3434 4678 2328 
Q 4678 1225 4090 567 
Q 3503 -91 2522 -91 
Q 1538 -91 948 565 
Q 359 1222 359 2328 
Q 359 3434 948 4092 
Q 1538 4750 2522 4750 
z
" transform="scale(0.015625)"/>
      <path id="DejaVuSans-70" d="M 1159 525 
L 1159 -1331 
L 581 -1331 
L 581 3500 
L 1159 3500 
L 1159 2969 
Q 1341 3281 1617 3432 
Q 1894 3584 2278 3584 
Q 2916 3584 3314 3078 
Q 3713 2572 3713 1747 
Q 3713 922 3314 415 
Q 2916 -91 2278 -91 
Q 1894 -91 1617 61 
Q 1341 213 1159 525 
z
M 3116 1747 
Q 3116 2381 2855 2742 
Q 2594 3103 2138 3103 
Q 1681 3103 1420 2742 
Q 1159 2381 1159 1747 
Q 1159 1113 1420 752 
Q 1681 391 2138 391 
Q 2594 391 2855 752 
Q 3116 1113 3116 1747 
z
" transform="scale(0.015625)"/>
      <path id="DejaVuSans-6e" d="M 3513 2113 
L 3513 0 
L 2938 0 
L 2938 2094 
Q 2938 2591 2744 2837 
Q 2550 3084 2163 3084 
Q 1697 3084 1428 2787 
Q 1159 2491 1159 1978 
L 1159 0 
L 581 0 
L 581 3500 
L 1159 3500 
L 1159 2956 
Q 1366 3272 1645 3428 
Q 1925 3584 2291 3584 
Q 2894 3584 3203 3211 
Q 3513 2838 3513 2113 
z
" transform="scale(0.015625)"/>
      <path id="DejaVuSans-67" d="M 2906 1791 
Q 2906 2416 2648 2759 
Q 2391 3103 1925 3103 
Q 1463 3103 1205 2759 
Q 947 2416 947 1791 
Q 947 1169 1205 825 
Q 1463 481 1925 481 
Q 2391 481 2648 825 
Q 2906 1169 2906 1791 
z
M 3481 434 
Q 3481 -459 3084 -895 
Q 2688 -1331 1869 -1331 
Q 1566 -1331 1297 -1286 
Q 1028 -1241 775 -1147 
L 775 -588 
Q 1028 -725 1275 -790 
Q 1522 -856 1778 -856 
Q 2344 -856 2625 -561 
Q 2906 -266 2906 331 
L 2906 616 
Q 2728 306 2450 153 
Q 2172 0 1784 0 
Q 1141 0 747 490 
Q 353 981 353 1791 
Q 353 2603 747 3093 
Q 1141 3584 1784 3584 
Q 2172 3584 2450 3431 
Q 2728 3278 2906 2969 
L 2906 3500 
L 3481 3500 
L 3481 434 
z
" transform="scale(0.015625)"/>
      <path id="DejaVuSans-43" d="M 4122 4306 
L 4122 3641 
Q 3803 3938 3442 4084 
Q 3081 4231 2675 4231 
Q 1875 4231 1450 3742 
Q 1025 3253 1025 2328 
Q 1025 1406 1450 917 
Q 1875 428 2675 428 
Q 3081 428 3442 575 
Q 3803 722 4122 1019 
L 4122 359 
Q 3791 134 3420 21 
Q 3050 -91 2638 -91 
Q 1578 -91 968 557 
Q 359 1206 359 2328 
Q 359 3453 968 4101 
Q 1578 4750 2638 4750 
Q 3056 4750 3426 4639 
Q 3797 4528 4122 4306 
z
" transform="scale(0.015625)"/>
      <path id="DejaVuSans-68" d="M 3513 2113 
L 3513 0 
L 2938 0 
L 2938 2094 
Q 2938 2591 2744 2837 
Q 2550 3084 2163 3084 
Q 1697 3084 1428 2787 
Q 1159 2491 1159 1978 
L 1159 0 
L 581 0 
L 581 4863 
L 1159 4863 
L 1159 2956 
Q 1366 3272 1645 3428 
Q 1925 3584 2291 3584 
Q 2894 3584 3203 3211 
Q 3513 2838 3513 2113 
z
" transform="scale(0.015625)"/>
      <path id="DejaVuSans-28" d="M 1984 4856 
Q 1566 4138 1362 3434 
Q 1159 2731 1159 2009 
Q 1159 1288 1364 580 
Q 1569 -128 1984 -844 
L 1484 -844 
Q 1016 -109 783 600 
Q 550 1309 550 2009 
Q 550 2706 781 3412 
Q 1013 4119 1484 4856 
L 1984 4856 
z
" transform="scale(0.015625)"/>
      <path id="DejaVuSans-29" d="M 513 4856 
L 1013 4856 
Q 1481 4119 1714 3412 
Q 1947 2706 1947 2009 
Q 1947 1309 1714 600 
Q 1481 -109 1013 -844 
L 513 -844 
Q 928 -128 1133 580 
Q 1338 1288 1338 2009 
Q 1338 2731 1133 3434 
Q 928 4138 513 4856 
z
" transform="scale(0.015625)"/>
     </defs>
     <use xlink:href="#DejaVuSans-52"/>
     <use xlink:href="#DejaVuSans-65" x="64.982422"/>
     <use xlink:href="#DejaVuSans-63" x="126.505859"/>
     <use xlink:href="#DejaVuSans-65" x="181.486328"/>
     <use xlink:href="#DejaVuSans-69" x="243.009766"/>
     <use xlink:href="#DejaVuSans-76" x="270.792969"/>
     <use xlink:href="#DejaVuSans-65" x="329.972656"/>
     <use xlink:href="#DejaVuSans-72" x="391.496094"/>
     <use xlink:href="#DejaVuSans-20" x="432.609375"/>
     <use xlink:href="#DejaVuSans-4f" x="464.396484"/>
     <use xlink:href="#DejaVuSans-70" x="543.107422"/>
     <use xlink:href="#DejaVuSans-65" x="606.583984"/>
     <use xlink:href="#DejaVuSans-72" x="668.107422"/>
     <use xlink:href="#DejaVuSans-61" x="709.220703"/>
     <use xlink:href="#DejaVuSans-74" x="770.5"/>
     <use xlink:href="#DejaVuSans-69" x="809.708984"/>
     <use xlink:href="#DejaVuSans-6e" x="837.492188"/>
     <use xlink:href="#DejaVuSans-67" x="900.871094"/>
     <use xlink:href="#DejaVuSans-20" x="964.347656"/>
     <use xlink:href="#DejaVuSans-43" x="996.134766"/>
     <use xlink:href="#DejaVuSans-68" x="1065.958984"/>
     <use xlink:href="#DejaVuSans-61" x="1129.337891"/>
     <use xlink:href="#DejaVuSans-72" x="1190.617188"/>
     <use xlink:href="#DejaVuSans-61" x="1231.730469"/>
     <use xlink:href="#DejaVuSans-63" x="1293.009766"/>
     <use xlink:href="#DejaVuSans-74" x="1347.990234"/>
     <use xlink:href="#DejaVuSans-65" x="1387.199219"/>
     <use xlink:href="#DejaVuSans-72" x="1448.722656"/>
     <use xlink:href="#DejaVuSans-69" x="1489.835938"/>
     <use xlink:href="#DejaVuSans-73" x="1517.619141"/>
     <use xlink:href="#DejaVuSans-74" x="1569.71875"/>
     <use xlink:href="#DejaVuSans-69" x="1608.927734"/>
     <use xlink:href="#DejaVuSans-63" x="1636.710938"/>
     <use xlink:href="#DejaVuSans-20" x="1691.691406"/>
     <use xlink:href="#DejaVuSans-28" x="1723.478516"/>
     <use xlink:href="#DejaVuSans-52" x="1762.492188"/>
     <use xlink:href="#DejaVuSans-4f" x="1831.974609"/>
     <use xlink:href="#DejaVuSans-43" x="1910.685547"/>
     <use xlink:href="#DejaVuSans-29" x="1980.509766"/>
     <use xlink:href="#DejaVuSans-20" x="2019.523438"/>
     <use xlink:href="#DejaVuSans-43" x="2051.310547"/>
     <use xlink:href="#DejaVuSans-75" x="2121.134766"/>
     <use xlink:href="#DejaVuSans-72" x="2184.513672"/>
     <use xlink:href="#DejaVuSans-76" x="2225.626953"/>
     <use xlink:href="#DejaVuSans-65" x="2284.806641"/>
    </g>
   </g>
   <g id="legend_1">
    <g id="patch_5">
     <path d="M 103.934219 351.303175 
L 340.748281 351.303175 
Q 342.748281 351.303175 342.748281 349.303175 
L 342.748281 335.346925 
Q 342.748281 333.346925 340.748281 333.346925 
L 103.934219 333.346925 
Q 101.934219 333.346925 101.934219 335.346925 
L 101.934219 349.303175 
Q 101.934219 351.303175 103.934219 351.303175 
z
" style="fill: #ffffff; opacity: 0.8; stroke: #cccccc; stroke-linejoin: miter"/>
    </g>
    <g id="line2d_14">
     <path d="M 105.934219 341.445362 
L 115.934219 341.445362 
L 125.934219 341.445362 
" style="fill: none; stroke: #f4ae3d; stroke-width: 1.5; stroke-linecap: square"/>
    </g>
    <g id="text_16">
     <!-- run_identifier_1 ROC Curve (AUC = 0.48) -->
     <g transform="translate(133.934219 344.945362) scale(0.1 -0.1)">
      <defs>
       <path id="DejaVuSans-5f" d="M 3263 -1063 
L 3263 -1509 
L -63 -1509 
L -63 -1063 
L 3263 -1063 
z
" transform="scale(0.015625)"/>
       <path id="DejaVuSans-64" d="M 2906 2969 
L 2906 4863 
L 3481 4863 
L 3481 0 
L 2906 0 
L 2906 525 
Q 2725 213 2448 61 
Q 2172 -91 1784 -91 
Q 1150 -91 751 415 
Q 353 922 353 1747 
Q 353 2572 751 3078 
Q 1150 3584 1784 3584 
Q 2172 3584 2448 3432 
Q 2725 3281 2906 2969 
z
M 947 1747 
Q 947 1113 1208 752 
Q 1469 391 1925 391 
Q 2381 391 2643 752 
Q 2906 1113 2906 1747 
Q 2906 2381 2643 2742 
Q 2381 3103 1925 3103 
Q 1469 3103 1208 2742 
Q 947 2381 947 1747 
z
" transform="scale(0.015625)"/>
       <path id="DejaVuSans-66" d="M 2375 4863 
L 2375 4384 
L 1825 4384 
Q 1516 4384 1395 4259 
Q 1275 4134 1275 3809 
L 1275 3500 
L 2222 3500 
L 2222 3053 
L 1275 3053 
L 1275 0 
L 697 0 
L 697 3053 
L 147 3053 
L 147 3500 
L 697 3500 
L 697 3744 
Q 697 4328 969 4595 
Q 1241 4863 1831 4863 
L 2375 4863 
z
" transform="scale(0.015625)"/>
       <path id="DejaVuSans-41" d="M 2188 4044 
L 1331 1722 
L 3047 1722 
L 2188 4044 
z
M 1831 4666 
L 2547 4666 
L 4325 0 
L 3669 0 
L 3244 1197 
L 1141 1197 
L 716 0 
L 50 0 
L 1831 4666 
z
" transform="scale(0.015625)"/>
       <path id="DejaVuSans-55" d="M 556 4666 
L 1191 4666 
L 1191 1831 
Q 1191 1081 1462 751 
Q 1734 422 2344 422 
Q 2950 422 3222 751 
Q 3494 1081 3494 1831 
L 3494 4666 
L 4128 4666 
L 4128 1753 
Q 4128 841 3676 375 
Q 3225 -91 2344 -91 
Q 1459 -91 1007 375 
Q 556 841 556 1753 
L 556 4666 
z
" transform="scale(0.015625)"/>
       <path id="DejaVuSans-3d" d="M 678 2906 
L 4684 2906 
L 4684 2381 
L 678 2381 
L 678 2906 
z
M 678 1631 
L 4684 1631 
L 4684 1100 
L 678 1100 
L 678 1631 
z
" transform="scale(0.015625)"/>
      </defs>
      <use xlink:href="#DejaVuSans-72"/>
      <use xlink:href="#DejaVuSans-75" x="41.113281"/>
      <use xlink:href="#DejaVuSans-6e" x="104.492188"/>
      <use xlink:href="#DejaVuSans-5f" x="167.871094"/>
      <use xlink:href="#DejaVuSans-69" x="217.871094"/>
      <use xlink:href="#DejaVuSans-64" x="245.654297"/>
      <use xlink:href="#DejaVuSans-65" x="309.130859"/>
      <use xlink:href="#DejaVuSans-6e" x="370.654297"/>
      <use xlink:href="#DejaVuSans-74" x="434.033203"/>
      <use xlink:href="#DejaVuSans-69" x="473.242188"/>
      <use xlink:href="#DejaVuSans-66" x="501.025391"/>
      <use xlink:href="#DejaVuSans-69" x="536.230469"/>
      <use xlink:href="#DejaVuSans-65" x="564.013672"/>
      <use xlink:href="#DejaVuSans-72" x="625.537109"/>
      <use xlink:href="#DejaVuSans-5f" x="666.650391"/>
      <use xlink:href="#DejaVuSans-31" x="716.650391"/>
      <use xlink:href="#DejaVuSans-20" x="780.273438"/>
      <use xlink:href="#DejaVuSans-52" x="812.060547"/>
      <use xlink:href="#DejaVuSans-4f" x="881.542969"/>
      <use xlink:href="#DejaVuSans-43" x="960.253906"/>
      <use xlink:href="#DejaVuSans-20" x="1030.078125"/>
      <use xlink:href="#DejaVuSans-43" x="1061.865234"/>
      <use xlink:href="#DejaVuSans-75" x="1131.689453"/>
      <use xlink:href="#DejaVuSans-72" x="1195.068359"/>
      <use xlink:href="#DejaVuSans-76" x="1236.181641"/>
      <use xlink:href="#DejaVuSans-65" x="1295.361328"/>
      <use xlink:href="#DejaVuSans-20" x="1356.884766"/>
      <use xlink:href="#DejaVuSans-28" x="1388.671875"/>
      <use xlink:href="#DejaVuSans-41" x="1427.685547"/>
      <use xlink:href="#DejaVuSans-55" x="1496.09375"/>
      <use xlink:href="#DejaVuSans-43" x="1569.287109"/>
      <use xlink:href="#DejaVuSans-20" x="1639.111328"/>
      <use xlink:href="#DejaVuSans-3d" x="1670.898438"/>
      <use xlink:href="#DejaVuSans-20" x="1754.6875"/>
      <use xlink:href="#DejaVuSans-30" x="1786.474609"/>
      <use xlink:href="#DejaVuSans-2e" x="1850.097656"/>
      <use xlink:href="#DejaVuSans-34" x="1881.884766"/>
      <use xlink:href="#DejaVuSans-38" x="1945.507812"/>
      <use xlink:href="#DejaVuSans-29" x="2009.130859"/>
     </g>
    </g>
   </g>
  </g>
 </g>
 <defs>
  <clipPath id="p3d52d88537">
   <rect x="43.78125" y="22.318125" width="357.12" height="266.112"/>
  </clipPath>
 </defs>
</svg>
