<?xml version="1.0" encoding="utf-8" standalone="no"?>
<!DOCTYPE svg PUBLIC "-//W3C//DTD SVG 1.1//EN"
  "http://www.w3.org/Graphics/SVG/1.1/DTD/svg11.dtd">
<svg xmlns:xlink="http://www.w3.org/1999/xlink" width="545.6pt" height="437.158031pt" viewBox="0 0 545.6 437.158031" xmlns="http://www.w3.org/2000/svg" version="1.1">
 <metadata>
  <rdf:RDF xmlns:dc="http://purl.org/dc/elements/1.1/" xmlns:cc="http://creativecommons.org/ns#" xmlns:rdf="http://www.w3.org/1999/02/22-rdf-syntax-ns#">
   <cc:Work>
    <dc:type rdf:resource="http://purl.org/dc/dcmitype/StillImage"/>
    <dc:date>2024-04-24T14:44:26.422956</dc:date>
    <dc:format>image/svg+xml</dc:format>
    <dc:creator>
     <cc:Agent>
      <dc:title>Matplotlib v3.8.4, https://matplotlib.org/</dc:title>
     </cc:Agent>
    </dc:creator>
   </cc:Work>
  </rdf:RDF>
 </metadata>
 <defs>
  <style type="text/css">*{stroke-linejoin: round; stroke-linecap: butt}</style>
 </defs>
 <g id="figure_1">
  <g id="patch_1">
   <path d="M 0 437.158031 
L 545.6 437.158031 
L 545.6 0 
L 0 0 
z
" style="fill: #ffffff"/>
  </g>
  <g id="axes_1">
   <g id="patch_2">
    <path d="M 122.06 331.837656 
L 423.54 331.837656 
L 423.54 24.597656 
L 122.06 24.597656 
z
" style="fill: #ffffff"/>
   </g>
   <g id="patch_3">
    <path d="M 126.366857 331.837656 
L 133.257829 331.837656 
L 133.257829 251.237033 
L 126.366857 251.237033 
z
" clip-path="url(#pf10407c275)" style="fill: #dda954; stroke: #ffffff; stroke-linejoin: miter"/>
   </g>
   <g id="patch_4">
    <path d="M 169.435429 331.837656 
L 176.3264 331.837656 
L 176.3264 205.749552 
L 169.435429 205.749552 
z
" clip-path="url(#pf10407c275)" style="fill: #dda954; stroke: #ffffff; stroke-linejoin: miter"/>
   </g>
   <g id="patch_5">
    <path d="M 212.504 331.837656 
L 219.394971 331.837656 
L 219.394971 184.202851 
L 212.504 184.202851 
z
" clip-path="url(#pf10407c275)" style="fill: #dda954; stroke: #ffffff; stroke-linejoin: miter"/>
   </g>
   <g id="patch_6">
    <path d="M 255.572571 331.837656 
L 262.463543 331.837656 
L 262.463543 153.877864 
L 255.572571 153.877864 
z
" clip-path="url(#pf10407c275)" style="fill: #dda954; stroke: #ffffff; stroke-linejoin: miter"/>
   </g>
   <g id="patch_7">
    <path d="M 298.641143 331.837656 
L 305.532114 331.837656 
L 305.532114 24.597656 
L 298.641143 24.597656 
z
" clip-path="url(#pf10407c275)" style="fill: #dda954; stroke: #ffffff; stroke-linejoin: miter"/>
   </g>
   <g id="patch_8">
    <path d="M 341.709714 331.837656 
L 348.600686 331.837656 
L 348.600686 331.837656 
L 341.709714 331.837656 
z
" clip-path="url(#pf10407c275)" style="fill: #dda954; stroke: #ffffff; stroke-linejoin: miter"/>
   </g>
   <g id="patch_9">
    <path d="M 384.778286 331.837656 
L 391.669257 331.837656 
L 391.669257 219.147326 
L 384.778286 219.147326 
z
" clip-path="url(#pf10407c275)" style="fill: #dda954; stroke: #ffffff; stroke-linejoin: miter"/>
   </g>
   <g id="patch_10">
    <path d="M 133.257829 331.837656 
L 140.1488 331.837656 
L 140.1488 249.640981 
L 133.257829 249.640981 
z
" clip-path="url(#pf10407c275)" style="fill: #d5643e; stroke: #ffffff; stroke-linejoin: miter"/>
   </g>
   <g id="patch_11">
    <path d="M 176.3264 331.837656 
L 183.217371 331.837656 
L 183.217371 200.961397 
L 176.3264 200.961397 
z
" clip-path="url(#pf10407c275)" style="fill: #d5643e; stroke: #ffffff; stroke-linejoin: miter"/>
   </g>
   <g id="patch_12">
    <path d="M 219.394971 331.837656 
L 226.285943 331.837656 
L 226.285943 177.818643 
L 219.394971 177.818643 
z
" clip-path="url(#pf10407c275)" style="fill: #d5643e; stroke: #ffffff; stroke-linejoin: miter"/>
   </g>
   <g id="patch_13">
    <path d="M 262.463543 331.837656 
L 269.354514 331.837656 
L 269.354514 149.089708 
L 262.463543 149.089708 
z
" clip-path="url(#pf10407c275)" style="fill: #d5643e; stroke: #ffffff; stroke-linejoin: miter"/>
   </g>
   <g id="patch_14">
    <path d="M 305.532114 331.837656 
L 312.423086 331.837656 
L 312.423086 24.597656 
L 305.532114 24.597656 
z
" clip-path="url(#pf10407c275)" style="fill: #d5643e; stroke: #ffffff; stroke-linejoin: miter"/>
   </g>
   <g id="patch_15">
    <path d="M 348.600686 331.837656 
L 355.491657 331.837656 
L 355.491657 331.837656 
L 348.600686 331.837656 
z
" clip-path="url(#pf10407c275)" style="fill: #d5643e; stroke: #ffffff; stroke-linejoin: miter"/>
   </g>
   <g id="patch_16">
    <path d="M 391.669257 331.837656 
L 398.560229 331.837656 
L 398.560229 216.104227 
L 391.669257 216.104227 
z
" clip-path="url(#pf10407c275)" style="fill: #d5643e; stroke: #ffffff; stroke-linejoin: miter"/>
   </g>
   <g id="patch_17">
    <path d="M 140.1488 331.837656 
L 147.039771 331.837656 
L 147.039771 216.921916 
L 140.1488 216.921916 
z
" clip-path="url(#pf10407c275)" style="fill: #376c7c; stroke: #ffffff; stroke-linejoin: miter"/>
   </g>
   <g id="patch_18">
    <path d="M 183.217371 331.837656 
L 190.108343 331.837656 
L 190.108343 169.040358 
L 183.217371 169.040358 
z
" clip-path="url(#pf10407c275)" style="fill: #376c7c; stroke: #ffffff; stroke-linejoin: miter"/>
   </g>
   <g id="patch_19">
    <path d="M 226.285943 331.837656 
L 233.176914 331.837656 
L 233.176914 157.069968 
L 226.285943 157.069968 
z
" clip-path="url(#pf10407c275)" style="fill: #376c7c; stroke: #ffffff; stroke-linejoin: miter"/>
   </g>
   <g id="patch_20">
    <path d="M 269.354514 331.837656 
L 276.245486 331.837656 
L 276.245486 133.927215 
L 269.354514 133.927215 
z
" clip-path="url(#pf10407c275)" style="fill: #376c7c; stroke: #ffffff; stroke-linejoin: miter"/>
   </g>
   <g id="patch_21">
    <path d="M 312.423086 331.837656 
L 319.314057 331.837656 
L 319.314057 24.597656 
L 312.423086 24.597656 
z
" clip-path="url(#pf10407c275)" style="fill: #376c7c; stroke: #ffffff; stroke-linejoin: miter"/>
   </g>
   <g id="patch_22">
    <path d="M 355.491657 331.837656 
L 362.382629 331.837656 
L 362.382629 331.837656 
L 355.491657 331.837656 
z
" clip-path="url(#pf10407c275)" style="fill: #376c7c; stroke: #ffffff; stroke-linejoin: miter"/>
   </g>
   <g id="patch_23">
    <path d="M 398.560229 331.837656 
L 405.4512 331.837656 
L 405.4512 188.378848 
L 398.560229 188.378848 
z
" clip-path="url(#pf10407c275)" style="fill: #376c7c; stroke: #ffffff; stroke-linejoin: miter"/>
   </g>
   <g id="patch_24">
    <path d="M 147.039771 331.837656 
L 153.930743 331.837656 
L 153.930743 291.138332 
L 147.039771 291.138332 
z
" clip-path="url(#pf10407c275)" style="fill: #9a8aac; stroke: #ffffff; stroke-linejoin: miter"/>
   </g>
   <g id="patch_25">
    <path d="M 190.108343 331.837656 
L 196.999314 331.837656 
L 196.999314 261.611371 
L 190.108343 261.611371 
z
" clip-path="url(#pf10407c275)" style="fill: #9a8aac; stroke: #ffffff; stroke-linejoin: miter"/>
   </g>
   <g id="patch_26">
    <path d="M 233.176914 331.837656 
L 240.067886 331.837656 
L 240.067886 247.246903 
L 233.176914 247.246903 
z
" clip-path="url(#pf10407c275)" style="fill: #9a8aac; stroke: #ffffff; stroke-linejoin: miter"/>
   </g>
   <g id="patch_27">
    <path d="M 276.245486 331.837656 
L 283.136457 331.837656 
L 283.136457 214.527838 
L 276.245486 214.527838 
z
" clip-path="url(#pf10407c275)" style="fill: #9a8aac; stroke: #ffffff; stroke-linejoin: miter"/>
   </g>
   <g id="patch_28">
    <path d="M 319.314057 331.837656 
L 326.205029 331.837656 
L 326.205029 24.597656 
L 319.314057 24.597656 
z
" clip-path="url(#pf10407c275)" style="fill: #9a8aac; stroke: #ffffff; stroke-linejoin: miter"/>
   </g>
   <g id="patch_29">
    <path d="M 362.382629 331.837656 
L 369.2736 331.837656 
L 369.2736 331.837656 
L 362.382629 331.837656 
z
" clip-path="url(#pf10407c275)" style="fill: #9a8aac; stroke: #ffffff; stroke-linejoin: miter"/>
   </g>
   <g id="patch_30">
    <path d="M 405.4512 331.837656 
L 412.342171 331.837656 
L 412.342171 267.109814 
L 405.4512 267.109814 
z
" clip-path="url(#pf10407c275)" style="fill: #9a8aac; stroke: #ffffff; stroke-linejoin: miter"/>
   </g>
   <g id="patch_31">
    <path d="M 153.930743 331.837656 
L 160.821714 331.837656 
L 160.821714 330.241604 
L 153.930743 330.241604 
z
" clip-path="url(#pf10407c275)" style="fill: #165646; stroke: #ffffff; stroke-linejoin: miter"/>
   </g>
   <g id="patch_32">
    <path d="M 196.999314 331.837656 
L 203.890286 331.837656 
L 203.890286 327.0495 
L 196.999314 327.0495 
z
" clip-path="url(#pf10407c275)" style="fill: #165646; stroke: #ffffff; stroke-linejoin: miter"/>
   </g>
   <g id="patch_33">
    <path d="M 240.067886 331.837656 
L 246.958857 331.837656 
L 246.958857 322.261345 
L 240.067886 322.261345 
z
" clip-path="url(#pf10407c275)" style="fill: #165646; stroke: #ffffff; stroke-linejoin: miter"/>
   </g>
   <g id="patch_34">
    <path d="M 283.136457 331.837656 
L 290.027429 331.837656 
L 290.027429 313.483059 
L 283.136457 313.483059 
z
" clip-path="url(#pf10407c275)" style="fill: #165646; stroke: #ffffff; stroke-linejoin: miter"/>
   </g>
   <g id="patch_35">
    <path d="M 326.205029 331.837656 
L 333.096 331.837656 
L 333.096 24.597656 
L 326.205029 24.597656 
z
" clip-path="url(#pf10407c275)" style="fill: #165646; stroke: #ffffff; stroke-linejoin: miter"/>
   </g>
   <g id="patch_36">
    <path d="M 369.2736 331.837656 
L 376.164571 331.837656 
L 376.164571 331.837656 
L 369.2736 331.837656 
z
" clip-path="url(#pf10407c275)" style="fill: #165646; stroke: #ffffff; stroke-linejoin: miter"/>
   </g>
   <g id="patch_37">
    <path d="M 412.342171 331.837656 
L 419.233143 331.837656 
L 419.233143 323.211913 
L 412.342171 323.211913 
z
" clip-path="url(#pf10407c275)" style="fill: #165646; stroke: #ffffff; stroke-linejoin: miter"/>
   </g>
   <g id="matplotlib.axis_1">
    <g id="xtick_1">
     <g id="line2d_1">
      <defs>
       <path id="m55431ad613" d="M 0 0 
L 0 3.5 
" style="stroke: #000000; stroke-width: 0.8"/>
      </defs>
      <g>
       <use xlink:href="#m55431ad613" x="143.594286" y="331.837656" style="stroke: #000000; stroke-width: 0.8"/>
      </g>
     </g>
     <g id="text_1">
      <!-- Top -->
      <g transform="translate(135.156786 346.436094) scale(0.1 -0.1)">
       <defs>
        <path id="DejaVuSans-54" d="M -19 4666 
L 3928 4666 
L 3928 4134 
L 2272 4134 
L 2272 0 
L 1638 0 
L 1638 4134 
L -19 4134 
L -19 4666 
z
" transform="scale(0.015625)"/>
        <path id="DejaVuSans-6f" d="M 1959 3097 
Q 1497 3097 1228 2736 
Q 959 2375 959 1747 
Q 959 1119 1226 758 
Q 1494 397 1959 397 
Q 2419 397 2687 759 
Q 2956 1122 2956 1747 
Q 2956 2369 2687 2733 
Q 2419 3097 1959 3097 
z
M 1959 3584 
Q 2709 3584 3137 3096 
Q 3566 2609 3566 1747 
Q 3566 888 3137 398 
Q 2709 -91 1959 -91 
Q 1206 -91 779 398 
Q 353 888 353 1747 
Q 353 2609 779 3096 
Q 1206 3584 1959 3584 
z
" transform="scale(0.015625)"/>
        <path id="DejaVuSans-70" d="M 1159 525 
L 1159 -1331 
L 581 -1331 
L 581 3500 
L 1159 3500 
L 1159 2969 
Q 1341 3281 1617 3432 
Q 1894 3584 2278 3584 
Q 2916 3584 3314 3078 
Q 3713 2572 3713 1747 
Q 3713 922 3314 415 
Q 2916 -91 2278 -91 
Q 1894 -91 1617 61 
Q 1341 213 1159 525 
z
M 3116 1747 
Q 3116 2381 2855 2742 
Q 2594 3103 2138 3103 
Q 1681 3103 1420 2742 
Q 1159 2381 1159 1747 
Q 1159 1113 1420 752 
Q 1681 391 2138 391 
Q 2594 391 2855 752 
Q 3116 1113 3116 1747 
z
" transform="scale(0.015625)"/>
       </defs>
       <use xlink:href="#DejaVuSans-54"/>
       <use xlink:href="#DejaVuSans-6f" x="44.083984"/>
       <use xlink:href="#DejaVuSans-70" x="105.265625"/>
      </g>
     </g>
    </g>
    <g id="xtick_2">
     <g id="line2d_2">
      <g>
       <use xlink:href="#m55431ad613" x="186.662857" y="331.837656" style="stroke: #000000; stroke-width: 0.8"/>
      </g>
     </g>
     <g id="text_2">
      <!-- Top3 -->
      <g transform="translate(175.044107 346.436094) scale(0.1 -0.1)">
       <defs>
        <path id="DejaVuSans-33" d="M 2597 2516 
Q 3050 2419 3304 2112 
Q 3559 1806 3559 1356 
Q 3559 666 3084 287 
Q 2609 -91 1734 -91 
Q 1441 -91 1130 -33 
Q 819 25 488 141 
L 488 750 
Q 750 597 1062 519 
Q 1375 441 1716 441 
Q 2309 441 2620 675 
Q 2931 909 2931 1356 
Q 2931 1769 2642 2001 
Q 2353 2234 1838 2234 
L 1294 2234 
L 1294 2753 
L 1863 2753 
Q 2328 2753 2575 2939 
Q 2822 3125 2822 3475 
Q 2822 3834 2567 4026 
Q 2313 4219 1838 4219 
Q 1578 4219 1281 4162 
Q 984 4106 628 3988 
L 628 4550 
Q 988 4650 1302 4700 
Q 1616 4750 1894 4750 
Q 2613 4750 3031 4423 
Q 3450 4097 3450 3541 
Q 3450 3153 3228 2886 
Q 3006 2619 2597 2516 
z
" transform="scale(0.015625)"/>
       </defs>
       <use xlink:href="#DejaVuSans-54"/>
       <use xlink:href="#DejaVuSans-6f" x="44.083984"/>
       <use xlink:href="#DejaVuSans-70" x="105.265625"/>
       <use xlink:href="#DejaVuSans-33" x="168.742188"/>
      </g>
     </g>
    </g>
    <g id="xtick_3">
     <g id="line2d_3">
      <g>
       <use xlink:href="#m55431ad613" x="229.731429" y="331.837656" style="stroke: #000000; stroke-width: 0.8"/>
      </g>
     </g>
     <g id="text_3">
      <!-- Top5 -->
      <g transform="translate(218.112679 346.436094) scale(0.1 -0.1)">
       <defs>
        <path id="DejaVuSans-35" d="M 691 4666 
L 3169 4666 
L 3169 4134 
L 1269 4134 
L 1269 2991 
Q 1406 3038 1543 3061 
Q 1681 3084 1819 3084 
Q 2600 3084 3056 2656 
Q 3513 2228 3513 1497 
Q 3513 744 3044 326 
Q 2575 -91 1722 -91 
Q 1428 -91 1123 -41 
Q 819 9 494 109 
L 494 744 
Q 775 591 1075 516 
Q 1375 441 1709 441 
Q 2250 441 2565 725 
Q 2881 1009 2881 1497 
Q 2881 1984 2565 2268 
Q 2250 2553 1709 2553 
Q 1456 2553 1204 2497 
Q 953 2441 691 2322 
L 691 4666 
z
" transform="scale(0.015625)"/>
       </defs>
       <use xlink:href="#DejaVuSans-54"/>
       <use xlink:href="#DejaVuSans-6f" x="44.083984"/>
       <use xlink:href="#DejaVuSans-70" x="105.265625"/>
       <use xlink:href="#DejaVuSans-35" x="168.742188"/>
      </g>
     </g>
    </g>
    <g id="xtick_4">
     <g id="line2d_4">
      <g>
       <use xlink:href="#m55431ad613" x="272.8" y="331.837656" style="stroke: #000000; stroke-width: 0.8"/>
      </g>
     </g>
     <g id="text_4">
      <!-- Top10 -->
      <g transform="translate(258 346.436094) scale(0.1 -0.1)">
       <defs>
        <path id="DejaVuSans-31" d="M 794 531 
L 1825 531 
L 1825 4091 
L 703 3866 
L 703 4441 
L 1819 4666 
L 2450 4666 
L 2450 531 
L 3481 531 
L 3481 0 
L 794 0 
L 794 531 
z
" transform="scale(0.015625)"/>
        <path id="DejaVuSans-30" d="M 2034 4250 
Q 1547 4250 1301 3770 
Q 1056 3291 1056 2328 
Q 1056 1369 1301 889 
Q 1547 409 2034 409 
Q 2525 409 2770 889 
Q 3016 1369 3016 2328 
Q 3016 3291 2770 3770 
Q 2525 4250 2034 4250 
z
M 2034 4750 
Q 2819 4750 3233 4129 
Q 3647 3509 3647 2328 
Q 3647 1150 3233 529 
Q 2819 -91 2034 -91 
Q 1250 -91 836 529 
Q 422 1150 422 2328 
Q 422 3509 836 4129 
Q 1250 4750 2034 4750 
z
" transform="scale(0.015625)"/>
       </defs>
       <use xlink:href="#DejaVuSans-54"/>
       <use xlink:href="#DejaVuSans-6f" x="44.083984"/>
       <use xlink:href="#DejaVuSans-70" x="105.265625"/>
       <use xlink:href="#DejaVuSans-31" x="168.742188"/>
       <use xlink:href="#DejaVuSans-30" x="232.365234"/>
      </g>
     </g>
    </g>
    <g id="xtick_5">
     <g id="line2d_5">
      <g>
       <use xlink:href="#m55431ad613" x="315.868571" y="331.837656" style="stroke: #000000; stroke-width: 0.8"/>
      </g>
     </g>
     <g id="text_5">
      <!-- Found -->
      <g transform="translate(300.602946 346.436094) scale(0.1 -0.1)">
       <defs>
        <path id="DejaVuSans-46" d="M 628 4666 
L 3309 4666 
L 3309 4134 
L 1259 4134 
L 1259 2759 
L 3109 2759 
L 3109 2228 
L 1259 2228 
L 1259 0 
L 628 0 
L 628 4666 
z
" transform="scale(0.015625)"/>
        <path id="DejaVuSans-75" d="M 544 1381 
L 544 3500 
L 1119 3500 
L 1119 1403 
Q 1119 906 1312 657 
Q 1506 409 1894 409 
Q 2359 409 2629 706 
Q 2900 1003 2900 1516 
L 2900 3500 
L 3475 3500 
L 3475 0 
L 2900 0 
L 2900 538 
Q 2691 219 2414 64 
Q 2138 -91 1772 -91 
Q 1169 -91 856 284 
Q 544 659 544 1381 
z
M 1991 3584 
L 1991 3584 
z
" transform="scale(0.015625)"/>
        <path id="DejaVuSans-6e" d="M 3513 2113 
L 3513 0 
L 2938 0 
L 2938 2094 
Q 2938 2591 2744 2837 
Q 2550 3084 2163 3084 
Q 1697 3084 1428 2787 
Q 1159 2491 1159 1978 
L 1159 0 
L 581 0 
L 581 3500 
L 1159 3500 
L 1159 2956 
Q 1366 3272 1645 3428 
Q 1925 3584 2291 3584 
Q 2894 3584 3203 3211 
Q 3513 2838 3513 2113 
z
" transform="scale(0.015625)"/>
        <path id="DejaVuSans-64" d="M 2906 2969 
L 2906 4863 
L 3481 4863 
L 3481 0 
L 2906 0 
L 2906 525 
Q 2725 213 2448 61 
Q 2172 -91 1784 -91 
Q 1150 -91 751 415 
Q 353 922 353 1747 
Q 353 2572 751 3078 
Q 1150 3584 1784 3584 
Q 2172 3584 2448 3432 
Q 2725 3281 2906 2969 
z
M 947 1747 
Q 947 1113 1208 752 
Q 1469 391 1925 391 
Q 2381 391 2643 752 
Q 2906 1113 2906 1747 
Q 2906 2381 2643 2742 
Q 2381 3103 1925 3103 
Q 1469 3103 1208 2742 
Q 947 2381 947 1747 
z
" transform="scale(0.015625)"/>
       </defs>
       <use xlink:href="#DejaVuSans-46"/>
       <use xlink:href="#DejaVuSans-6f" x="53.894531"/>
       <use xlink:href="#DejaVuSans-75" x="115.076172"/>
       <use xlink:href="#DejaVuSans-6e" x="178.455078"/>
       <use xlink:href="#DejaVuSans-64" x="241.833984"/>
      </g>
     </g>
    </g>
    <g id="xtick_6">
     <g id="line2d_6">
      <g>
       <use xlink:href="#m55431ad613" x="358.937143" y="331.837656" style="stroke: #000000; stroke-width: 0.8"/>
      </g>
     </g>
     <g id="text_6">
      <!-- Missed -->
      <g transform="translate(341.773862 346.436094) scale(0.1 -0.1)">
       <defs>
        <path id="DejaVuSans-4d" d="M 628 4666 
L 1569 4666 
L 2759 1491 
L 3956 4666 
L 4897 4666 
L 4897 0 
L 4281 0 
L 4281 4097 
L 3078 897 
L 2444 897 
L 1241 4097 
L 1241 0 
L 628 0 
L 628 4666 
z
" transform="scale(0.015625)"/>
        <path id="DejaVuSans-69" d="M 603 3500 
L 1178 3500 
L 1178 0 
L 603 0 
L 603 3500 
z
M 603 4863 
L 1178 4863 
L 1178 4134 
L 603 4134 
L 603 4863 
z
" transform="scale(0.015625)"/>
        <path id="DejaVuSans-73" d="M 2834 3397 
L 2834 2853 
Q 2591 2978 2328 3040 
Q 2066 3103 1784 3103 
Q 1356 3103 1142 2972 
Q 928 2841 928 2578 
Q 928 2378 1081 2264 
Q 1234 2150 1697 2047 
L 1894 2003 
Q 2506 1872 2764 1633 
Q 3022 1394 3022 966 
Q 3022 478 2636 193 
Q 2250 -91 1575 -91 
Q 1294 -91 989 -36 
Q 684 19 347 128 
L 347 722 
Q 666 556 975 473 
Q 1284 391 1588 391 
Q 1994 391 2212 530 
Q 2431 669 2431 922 
Q 2431 1156 2273 1281 
Q 2116 1406 1581 1522 
L 1381 1569 
Q 847 1681 609 1914 
Q 372 2147 372 2553 
Q 372 3047 722 3315 
Q 1072 3584 1716 3584 
Q 2034 3584 2315 3537 
Q 2597 3491 2834 3397 
z
" transform="scale(0.015625)"/>
        <path id="DejaVuSans-65" d="M 3597 1894 
L 3597 1613 
L 953 1613 
Q 991 1019 1311 708 
Q 1631 397 2203 397 
Q 2534 397 2845 478 
Q 3156 559 3463 722 
L 3463 178 
Q 3153 47 2828 -22 
Q 2503 -91 2169 -91 
Q 1331 -91 842 396 
Q 353 884 353 1716 
Q 353 2575 817 3079 
Q 1281 3584 2069 3584 
Q 2775 3584 3186 3129 
Q 3597 2675 3597 1894 
z
M 3022 2063 
Q 3016 2534 2758 2815 
Q 2500 3097 2075 3097 
Q 1594 3097 1305 2825 
Q 1016 2553 972 2059 
L 3022 2063 
z
" transform="scale(0.015625)"/>
       </defs>
       <use xlink:href="#DejaVuSans-4d"/>
       <use xlink:href="#DejaVuSans-69" x="86.279297"/>
       <use xlink:href="#DejaVuSans-73" x="114.0625"/>
       <use xlink:href="#DejaVuSans-73" x="166.162109"/>
       <use xlink:href="#DejaVuSans-65" x="218.261719"/>
       <use xlink:href="#DejaVuSans-64" x="279.785156"/>
      </g>
     </g>
    </g>
    <g id="xtick_7">
     <g id="line2d_7">
      <g>
       <use xlink:href="#m55431ad613" x="402.005714" y="331.837656" style="stroke: #000000; stroke-width: 0.8"/>
      </g>
     </g>
     <g id="text_7">
      <!-- MRR -->
      <g transform="translate(390.743214 346.436094) scale(0.1 -0.1)">
       <defs>
        <path id="DejaVuSans-52" d="M 2841 2188 
Q 3044 2119 3236 1894 
Q 3428 1669 3622 1275 
L 4263 0 
L 3584 0 
L 2988 1197 
Q 2756 1666 2539 1819 
Q 2322 1972 1947 1972 
L 1259 1972 
L 1259 0 
L 628 0 
L 628 4666 
L 2053 4666 
Q 2853 4666 3247 4331 
Q 3641 3997 3641 3322 
Q 3641 2881 3436 2590 
Q 3231 2300 2841 2188 
z
M 1259 4147 
L 1259 2491 
L 2053 2491 
Q 2509 2491 2742 2702 
Q 2975 2913 2975 3322 
Q 2975 3731 2742 3939 
Q 2509 4147 2053 4147 
L 1259 4147 
z
" transform="scale(0.015625)"/>
       </defs>
       <use xlink:href="#DejaVuSans-4d"/>
       <use xlink:href="#DejaVuSans-52" x="86.279297"/>
       <use xlink:href="#DejaVuSans-52" x="155.761719"/>
      </g>
     </g>
    </g>
    <g id="text_8">
     <!-- Rank -->
     <g transform="translate(260.310156 360.114219) scale(0.1 -0.1)">
      <defs>
       <path id="DejaVuSans-61" d="M 2194 1759 
Q 1497 1759 1228 1600 
Q 959 1441 959 1056 
Q 959 750 1161 570 
Q 1363 391 1709 391 
Q 2188 391 2477 730 
Q 2766 1069 2766 1631 
L 2766 1759 
L 2194 1759 
z
M 3341 1997 
L 3341 0 
L 2766 0 
L 2766 531 
Q 2569 213 2275 61 
Q 1981 -91 1556 -91 
Q 1019 -91 701 211 
Q 384 513 384 1019 
Q 384 1609 779 1909 
Q 1175 2209 1959 2209 
L 2766 2209 
L 2766 2266 
Q 2766 2663 2505 2880 
Q 2244 3097 1772 3097 
Q 1472 3097 1187 3025 
Q 903 2953 641 2809 
L 641 3341 
Q 956 3463 1253 3523 
Q 1550 3584 1831 3584 
Q 2591 3584 2966 3190 
Q 3341 2797 3341 1997 
z
" transform="scale(0.015625)"/>
       <path id="DejaVuSans-6b" d="M 581 4863 
L 1159 4863 
L 1159 1991 
L 2875 3500 
L 3609 3500 
L 1753 1863 
L 3688 0 
L 2938 0 
L 1159 1709 
L 1159 0 
L 581 0 
L 581 4863 
z
" transform="scale(0.015625)"/>
      </defs>
      <use xlink:href="#DejaVuSans-52"/>
      <use xlink:href="#DejaVuSans-61" x="67.232422"/>
      <use xlink:href="#DejaVuSans-6e" x="128.511719"/>
      <use xlink:href="#DejaVuSans-6b" x="191.890625"/>
     </g>
    </g>
   </g>
   <g id="matplotlib.axis_2">
    <g id="ytick_1">
     <g id="line2d_8">
      <defs>
       <path id="mda19e3ea4a" d="M 0 0 
L -3.5 0 
" style="stroke: #000000; stroke-width: 0.8"/>
      </defs>
      <g>
       <use xlink:href="#mda19e3ea4a" x="122.06" y="331.837656" style="stroke: #000000; stroke-width: 0.8"/>
      </g>
     </g>
     <g id="text_9">
      <!-- 0.0 -->
      <g transform="translate(99.156875 335.636875) scale(0.1 -0.1)">
       <defs>
        <path id="DejaVuSans-2e" d="M 684 794 
L 1344 794 
L 1344 0 
L 684 0 
L 684 794 
z
" transform="scale(0.015625)"/>
       </defs>
       <use xlink:href="#DejaVuSans-30"/>
       <use xlink:href="#DejaVuSans-2e" x="63.623047"/>
       <use xlink:href="#DejaVuSans-30" x="95.410156"/>
      </g>
     </g>
    </g>
    <g id="ytick_2">
     <g id="line2d_9">
      <g>
       <use xlink:href="#mda19e3ea4a" x="122.06" y="270.389656" style="stroke: #000000; stroke-width: 0.8"/>
      </g>
     </g>
     <g id="text_10">
      <!-- 0.2 -->
      <g transform="translate(99.156875 274.188875) scale(0.1 -0.1)">
       <defs>
        <path id="DejaVuSans-32" d="M 1228 531 
L 3431 531 
L 3431 0 
L 469 0 
L 469 531 
Q 828 903 1448 1529 
Q 2069 2156 2228 2338 
Q 2531 2678 2651 2914 
Q 2772 3150 2772 3378 
Q 2772 3750 2511 3984 
Q 2250 4219 1831 4219 
Q 1534 4219 1204 4116 
Q 875 4013 500 3803 
L 500 4441 
Q 881 4594 1212 4672 
Q 1544 4750 1819 4750 
Q 2544 4750 2975 4387 
Q 3406 4025 3406 3419 
Q 3406 3131 3298 2873 
Q 3191 2616 2906 2266 
Q 2828 2175 2409 1742 
Q 1991 1309 1228 531 
z
" transform="scale(0.015625)"/>
       </defs>
       <use xlink:href="#DejaVuSans-30"/>
       <use xlink:href="#DejaVuSans-2e" x="63.623047"/>
       <use xlink:href="#DejaVuSans-32" x="95.410156"/>
      </g>
     </g>
    </g>
    <g id="ytick_3">
     <g id="line2d_10">
      <g>
       <use xlink:href="#mda19e3ea4a" x="122.06" y="208.941656" style="stroke: #000000; stroke-width: 0.8"/>
      </g>
     </g>
     <g id="text_11">
      <!-- 0.4 -->
      <g transform="translate(99.156875 212.740875) scale(0.1 -0.1)">
       <defs>
        <path id="DejaVuSans-34" d="M 2419 4116 
L 825 1625 
L 2419 1625 
L 2419 4116 
z
M 2253 4666 
L 3047 4666 
L 3047 1625 
L 3713 1625 
L 3713 1100 
L 3047 1100 
L 3047 0 
L 2419 0 
L 2419 1100 
L 313 1100 
L 313 1709 
L 2253 4666 
z
" transform="scale(0.015625)"/>
       </defs>
       <use xlink:href="#DejaVuSans-30"/>
       <use xlink:href="#DejaVuSans-2e" x="63.623047"/>
       <use xlink:href="#DejaVuSans-34" x="95.410156"/>
      </g>
     </g>
    </g>
    <g id="ytick_4">
     <g id="line2d_11">
      <g>
       <use xlink:href="#mda19e3ea4a" x="122.06" y="147.493656" style="stroke: #000000; stroke-width: 0.8"/>
      </g>
     </g>
     <g id="text_12">
      <!-- 0.6 -->
      <g transform="translate(99.156875 151.292875) scale(0.1 -0.1)">
       <defs>
        <path id="DejaVuSans-36" d="M 2113 2584 
Q 1688 2584 1439 2293 
Q 1191 2003 1191 1497 
Q 1191 994 1439 701 
Q 1688 409 2113 409 
Q 2538 409 2786 701 
Q 3034 994 3034 1497 
Q 3034 2003 2786 2293 
Q 2538 2584 2113 2584 
z
M 3366 4563 
L 3366 3988 
Q 3128 4100 2886 4159 
Q 2644 4219 2406 4219 
Q 1781 4219 1451 3797 
Q 1122 3375 1075 2522 
Q 1259 2794 1537 2939 
Q 1816 3084 2150 3084 
Q 2853 3084 3261 2657 
Q 3669 2231 3669 1497 
Q 3669 778 3244 343 
Q 2819 -91 2113 -91 
Q 1303 -91 875 529 
Q 447 1150 447 2328 
Q 447 3434 972 4092 
Q 1497 4750 2381 4750 
Q 2619 4750 2861 4703 
Q 3103 4656 3366 4563 
z
" transform="scale(0.015625)"/>
       </defs>
       <use xlink:href="#DejaVuSans-30"/>
       <use xlink:href="#DejaVuSans-2e" x="63.623047"/>
       <use xlink:href="#DejaVuSans-36" x="95.410156"/>
      </g>
     </g>
    </g>
    <g id="ytick_5">
     <g id="line2d_12">
      <g>
       <use xlink:href="#mda19e3ea4a" x="122.06" y="86.045656" style="stroke: #000000; stroke-width: 0.8"/>
      </g>
     </g>
     <g id="text_13">
      <!-- 0.8 -->
      <g transform="translate(99.156875 89.844875) scale(0.1 -0.1)">
       <defs>
        <path id="DejaVuSans-38" d="M 2034 2216 
Q 1584 2216 1326 1975 
Q 1069 1734 1069 1313 
Q 1069 891 1326 650 
Q 1584 409 2034 409 
Q 2484 409 2743 651 
Q 3003 894 3003 1313 
Q 3003 1734 2745 1975 
Q 2488 2216 2034 2216 
z
M 1403 2484 
Q 997 2584 770 2862 
Q 544 3141 544 3541 
Q 544 4100 942 4425 
Q 1341 4750 2034 4750 
Q 2731 4750 3128 4425 
Q 3525 4100 3525 3541 
Q 3525 3141 3298 2862 
Q 3072 2584 2669 2484 
Q 3125 2378 3379 2068 
Q 3634 1759 3634 1313 
Q 3634 634 3220 271 
Q 2806 -91 2034 -91 
Q 1263 -91 848 271 
Q 434 634 434 1313 
Q 434 1759 690 2068 
Q 947 2378 1403 2484 
z
M 1172 3481 
Q 1172 3119 1398 2916 
Q 1625 2713 2034 2713 
Q 2441 2713 2670 2916 
Q 2900 3119 2900 3481 
Q 2900 3844 2670 4047 
Q 2441 4250 2034 4250 
Q 1625 4250 1398 4047 
Q 1172 3844 1172 3481 
z
" transform="scale(0.015625)"/>
       </defs>
       <use xlink:href="#DejaVuSans-30"/>
       <use xlink:href="#DejaVuSans-2e" x="63.623047"/>
       <use xlink:href="#DejaVuSans-38" x="95.410156"/>
      </g>
     </g>
    </g>
    <g id="ytick_6">
     <g id="line2d_13">
      <g>
       <use xlink:href="#mda19e3ea4a" x="122.06" y="24.597656" style="stroke: #000000; stroke-width: 0.8"/>
      </g>
     </g>
     <g id="text_14">
      <!-- 1.0 -->
      <g transform="translate(99.156875 28.396875) scale(0.1 -0.1)">
       <use xlink:href="#DejaVuSans-31"/>
       <use xlink:href="#DejaVuSans-2e" x="63.623047"/>
       <use xlink:href="#DejaVuSans-30" x="95.410156"/>
      </g>
     </g>
    </g>
    <g id="text_15">
     <!-- Disease-causing genes (%) -->
     <g transform="translate(93.077188 245.937187) rotate(-90) scale(0.1 -0.1)">
      <defs>
       <path id="DejaVuSans-44" d="M 1259 4147 
L 1259 519 
L 2022 519 
Q 2988 519 3436 956 
Q 3884 1394 3884 2338 
Q 3884 3275 3436 3711 
Q 2988 4147 2022 4147 
L 1259 4147 
z
M 628 4666 
L 1925 4666 
Q 3281 4666 3915 4102 
Q 4550 3538 4550 2338 
Q 4550 1131 3912 565 
Q 3275 0 1925 0 
L 628 0 
L 628 4666 
z
" transform="scale(0.015625)"/>
       <path id="DejaVuSans-2d" d="M 313 2009 
L 1997 2009 
L 1997 1497 
L 313 1497 
L 313 2009 
z
" transform="scale(0.015625)"/>
       <path id="DejaVuSans-63" d="M 3122 3366 
L 3122 2828 
Q 2878 2963 2633 3030 
Q 2388 3097 2138 3097 
Q 1578 3097 1268 2742 
Q 959 2388 959 1747 
Q 959 1106 1268 751 
Q 1578 397 2138 397 
Q 2388 397 2633 464 
Q 2878 531 3122 666 
L 3122 134 
Q 2881 22 2623 -34 
Q 2366 -91 2075 -91 
Q 1284 -91 818 406 
Q 353 903 353 1747 
Q 353 2603 823 3093 
Q 1294 3584 2113 3584 
Q 2378 3584 2631 3529 
Q 2884 3475 3122 3366 
z
" transform="scale(0.015625)"/>
       <path id="DejaVuSans-67" d="M 2906 1791 
Q 2906 2416 2648 2759 
Q 2391 3103 1925 3103 
Q 1463 3103 1205 2759 
Q 947 2416 947 1791 
Q 947 1169 1205 825 
Q 1463 481 1925 481 
Q 2391 481 2648 825 
Q 2906 1169 2906 1791 
z
M 3481 434 
Q 3481 -459 3084 -895 
Q 2688 -1331 1869 -1331 
Q 1566 -1331 1297 -1286 
Q 1028 -1241 775 -1147 
L 775 -588 
Q 1028 -725 1275 -790 
Q 1522 -856 1778 -856 
Q 2344 -856 2625 -561 
Q 2906 -266 2906 331 
L 2906 616 
Q 2728 306 2450 153 
Q 2172 0 1784 0 
Q 1141 0 747 490 
Q 353 981 353 1791 
Q 353 2603 747 3093 
Q 1141 3584 1784 3584 
Q 2172 3584 2450 3431 
Q 2728 3278 2906 2969 
L 2906 3500 
L 3481 3500 
L 3481 434 
z
" transform="scale(0.015625)"/>
       <path id="DejaVuSans-20" transform="scale(0.015625)"/>
       <path id="DejaVuSans-28" d="M 1984 4856 
Q 1566 4138 1362 3434 
Q 1159 2731 1159 2009 
Q 1159 1288 1364 580 
Q 1569 -128 1984 -844 
L 1484 -844 
Q 1016 -109 783 600 
Q 550 1309 550 2009 
Q 550 2706 781 3412 
Q 1013 4119 1484 4856 
L 1984 4856 
z
" transform="scale(0.015625)"/>
       <path id="DejaVuSans-25" d="M 4653 2053 
Q 4381 2053 4226 1822 
Q 4072 1591 4072 1178 
Q 4072 772 4226 539 
Q 4381 306 4653 306 
Q 4919 306 5073 539 
Q 5228 772 5228 1178 
Q 5228 1588 5073 1820 
Q 4919 2053 4653 2053 
z
M 4653 2450 
Q 5147 2450 5437 2106 
Q 5728 1763 5728 1178 
Q 5728 594 5436 251 
Q 5144 -91 4653 -91 
Q 4153 -91 3862 251 
Q 3572 594 3572 1178 
Q 3572 1766 3864 2108 
Q 4156 2450 4653 2450 
z
M 1428 4353 
Q 1159 4353 1004 4120 
Q 850 3888 850 3481 
Q 850 3069 1003 2837 
Q 1156 2606 1428 2606 
Q 1700 2606 1854 2837 
Q 2009 3069 2009 3481 
Q 2009 3884 1853 4118 
Q 1697 4353 1428 4353 
z
M 4250 4750 
L 4750 4750 
L 1831 -91 
L 1331 -91 
L 4250 4750 
z
M 1428 4750 
Q 1922 4750 2215 4408 
Q 2509 4066 2509 3481 
Q 2509 2891 2217 2550 
Q 1925 2209 1428 2209 
Q 931 2209 642 2551 
Q 353 2894 353 3481 
Q 353 4063 643 4406 
Q 934 4750 1428 4750 
z
" transform="scale(0.015625)"/>
       <path id="DejaVuSans-29" d="M 513 4856 
L 1013 4856 
Q 1481 4119 1714 3412 
Q 1947 2706 1947 2009 
Q 1947 1309 1714 600 
Q 1481 -109 1013 -844 
L 513 -844 
Q 928 -128 1133 580 
Q 1338 1288 1338 2009 
Q 1338 2731 1133 3434 
Q 928 4138 513 4856 
z
" transform="scale(0.015625)"/>
      </defs>
      <use xlink:href="#DejaVuSans-44"/>
      <use xlink:href="#DejaVuSans-69" x="77.001953"/>
      <use xlink:href="#DejaVuSans-73" x="104.785156"/>
      <use xlink:href="#DejaVuSans-65" x="156.884766"/>
      <use xlink:href="#DejaVuSans-61" x="218.408203"/>
      <use xlink:href="#DejaVuSans-73" x="279.6875"/>
      <use xlink:href="#DejaVuSans-65" x="331.787109"/>
      <use xlink:href="#DejaVuSans-2d" x="393.310547"/>
      <use xlink:href="#DejaVuSans-63" x="429.394531"/>
      <use xlink:href="#DejaVuSans-61" x="484.375"/>
      <use xlink:href="#DejaVuSans-75" x="545.654297"/>
      <use xlink:href="#DejaVuSans-73" x="609.033203"/>
      <use xlink:href="#DejaVuSans-69" x="661.132812"/>
      <use xlink:href="#DejaVuSans-6e" x="688.916016"/>
      <use xlink:href="#DejaVuSans-67" x="752.294922"/>
      <use xlink:href="#DejaVuSans-20" x="815.771484"/>
      <use xlink:href="#DejaVuSans-67" x="847.558594"/>
      <use xlink:href="#DejaVuSans-65" x="911.035156"/>
      <use xlink:href="#DejaVuSans-6e" x="972.558594"/>
      <use xlink:href="#DejaVuSans-65" x="1035.9375"/>
      <use xlink:href="#DejaVuSans-73" x="1097.460938"/>
      <use xlink:href="#DejaVuSans-20" x="1149.560547"/>
      <use xlink:href="#DejaVuSans-28" x="1181.347656"/>
      <use xlink:href="#DejaVuSans-25" x="1220.361328"/>
      <use xlink:href="#DejaVuSans-29" x="1315.380859"/>
     </g>
    </g>
   </g>
   <g id="line2d_14">
    <path clip-path="url(#pf10407c275)" style="fill: none; stroke: #424242; stroke-width: 2.7; stroke-linecap: square"/>
   </g>
   <g id="line2d_15">
    <path clip-path="url(#pf10407c275)" style="fill: none; stroke: #424242; stroke-width: 2.7; stroke-linecap: square"/>
   </g>
   <g id="line2d_16">
    <path clip-path="url(#pf10407c275)" style="fill: none; stroke: #424242; stroke-width: 2.7; stroke-linecap: square"/>
   </g>
   <g id="line2d_17">
    <path clip-path="url(#pf10407c275)" style="fill: none; stroke: #424242; stroke-width: 2.7; stroke-linecap: square"/>
   </g>
   <g id="line2d_18">
    <path clip-path="url(#pf10407c275)" style="fill: none; stroke: #424242; stroke-width: 2.7; stroke-linecap: square"/>
   </g>
   <g id="line2d_19">
    <path clip-path="url(#pf10407c275)" style="fill: none; stroke: #424242; stroke-width: 2.7; stroke-linecap: square"/>
   </g>
   <g id="line2d_20">
    <path clip-path="url(#pf10407c275)" style="fill: none; stroke: #424242; stroke-width: 2.7; stroke-linecap: square"/>
   </g>
   <g id="line2d_21">
    <path clip-path="url(#pf10407c275)" style="fill: none; stroke: #424242; stroke-width: 2.7; stroke-linecap: square"/>
   </g>
   <g id="line2d_22">
    <path clip-path="url(#pf10407c275)" style="fill: none; stroke: #424242; stroke-width: 2.7; stroke-linecap: square"/>
   </g>
   <g id="line2d_23">
    <path clip-path="url(#pf10407c275)" style="fill: none; stroke: #424242; stroke-width: 2.7; stroke-linecap: square"/>
   </g>
   <g id="line2d_24">
    <path clip-path="url(#pf10407c275)" style="fill: none; stroke: #424242; stroke-width: 2.7; stroke-linecap: square"/>
   </g>
   <g id="line2d_25">
    <path clip-path="url(#pf10407c275)" style="fill: none; stroke: #424242; stroke-width: 2.7; stroke-linecap: square"/>
   </g>
   <g id="line2d_26">
    <path clip-path="url(#pf10407c275)" style="fill: none; stroke: #424242; stroke-width: 2.7; stroke-linecap: square"/>
   </g>
   <g id="line2d_27">
    <path clip-path="url(#pf10407c275)" style="fill: none; stroke: #424242; stroke-width: 2.7; stroke-linecap: square"/>
   </g>
   <g id="line2d_28">
    <path clip-path="url(#pf10407c275)" style="fill: none; stroke: #424242; stroke-width: 2.7; stroke-linecap: square"/>
   </g>
   <g id="line2d_29">
    <path clip-path="url(#pf10407c275)" style="fill: none; stroke: #424242; stroke-width: 2.7; stroke-linecap: square"/>
   </g>
   <g id="line2d_30">
    <path clip-path="url(#pf10407c275)" style="fill: none; stroke: #424242; stroke-width: 2.7; stroke-linecap: square"/>
   </g>
   <g id="line2d_31">
    <path clip-path="url(#pf10407c275)" style="fill: none; stroke: #424242; stroke-width: 2.7; stroke-linecap: square"/>
   </g>
   <g id="line2d_32">
    <path clip-path="url(#pf10407c275)" style="fill: none; stroke: #424242; stroke-width: 2.7; stroke-linecap: square"/>
   </g>
   <g id="line2d_33">
    <path clip-path="url(#pf10407c275)" style="fill: none; stroke: #424242; stroke-width: 2.7; stroke-linecap: square"/>
   </g>
   <g id="line2d_34">
    <path clip-path="url(#pf10407c275)" style="fill: none; stroke: #424242; stroke-width: 2.7; stroke-linecap: square"/>
   </g>
   <g id="line2d_35">
    <path clip-path="url(#pf10407c275)" style="fill: none; stroke: #424242; stroke-width: 2.7; stroke-linecap: square"/>
   </g>
   <g id="line2d_36">
    <path clip-path="url(#pf10407c275)" style="fill: none; stroke: #424242; stroke-width: 2.7; stroke-linecap: square"/>
   </g>
   <g id="line2d_37">
    <path clip-path="url(#pf10407c275)" style="fill: none; stroke: #424242; stroke-width: 2.7; stroke-linecap: square"/>
   </g>
   <g id="line2d_38">
    <path clip-path="url(#pf10407c275)" style="fill: none; stroke: #424242; stroke-width: 2.7; stroke-linecap: square"/>
   </g>
   <g id="line2d_39">
    <path clip-path="url(#pf10407c275)" style="fill: none; stroke: #424242; stroke-width: 2.7; stroke-linecap: square"/>
   </g>
   <g id="line2d_40">
    <path clip-path="url(#pf10407c275)" style="fill: none; stroke: #424242; stroke-width: 2.7; stroke-linecap: square"/>
   </g>
   <g id="line2d_41">
    <path clip-path="url(#pf10407c275)" style="fill: none; stroke: #424242; stroke-width: 2.7; stroke-linecap: square"/>
   </g>
   <g id="line2d_42">
    <path clip-path="url(#pf10407c275)" style="fill: none; stroke: #424242; stroke-width: 2.7; stroke-linecap: square"/>
   </g>
   <g id="line2d_43">
    <path clip-path="url(#pf10407c275)" style="fill: none; stroke: #424242; stroke-width: 2.7; stroke-linecap: square"/>
   </g>
   <g id="line2d_44">
    <path clip-path="url(#pf10407c275)" style="fill: none; stroke: #424242; stroke-width: 2.7; stroke-linecap: square"/>
   </g>
   <g id="line2d_45">
    <path clip-path="url(#pf10407c275)" style="fill: none; stroke: #424242; stroke-width: 2.7; stroke-linecap: square"/>
   </g>
   <g id="line2d_46">
    <path clip-path="url(#pf10407c275)" style="fill: none; stroke: #424242; stroke-width: 2.7; stroke-linecap: square"/>
   </g>
   <g id="line2d_47">
    <path clip-path="url(#pf10407c275)" style="fill: none; stroke: #424242; stroke-width: 2.7; stroke-linecap: square"/>
   </g>
   <g id="line2d_48">
    <path clip-path="url(#pf10407c275)" style="fill: none; stroke: #424242; stroke-width: 2.7; stroke-linecap: square"/>
   </g>
   <g id="patch_38">
    <path d="M 122.06 331.837656 
L 122.06 24.597656 
" style="fill: none; stroke: #000000; stroke-width: 0.8; stroke-linejoin: miter; stroke-linecap: square"/>
   </g>
   <g id="patch_39">
    <path d="M 122.06 331.837656 
L 423.54 331.837656 
" style="fill: none; stroke: #000000; stroke-width: 0.8; stroke-linejoin: miter; stroke-linecap: square"/>
   </g>
   <g id="text_16">
    <!-- Benchmark - LIRICAL corpus -->
    <g transform="translate(166.645703 18.597656) scale(0.15 -0.15)">
     <defs>
      <path id="DejaVuSans-42" d="M 1259 2228 
L 1259 519 
L 2272 519 
Q 2781 519 3026 730 
Q 3272 941 3272 1375 
Q 3272 1813 3026 2020 
Q 2781 2228 2272 2228 
L 1259 2228 
z
M 1259 4147 
L 1259 2741 
L 2194 2741 
Q 2656 2741 2882 2914 
Q 3109 3088 3109 3444 
Q 3109 3797 2882 3972 
Q 2656 4147 2194 4147 
L 1259 4147 
z
M 628 4666 
L 2241 4666 
Q 2963 4666 3353 4366 
Q 3744 4066 3744 3513 
Q 3744 3084 3544 2831 
Q 3344 2578 2956 2516 
Q 3422 2416 3680 2098 
Q 3938 1781 3938 1306 
Q 3938 681 3513 340 
Q 3088 0 2303 0 
L 628 0 
L 628 4666 
z
" transform="scale(0.015625)"/>
      <path id="DejaVuSans-68" d="M 3513 2113 
L 3513 0 
L 2938 0 
L 2938 2094 
Q 2938 2591 2744 2837 
Q 2550 3084 2163 3084 
Q 1697 3084 1428 2787 
Q 1159 2491 1159 1978 
L 1159 0 
L 581 0 
L 581 4863 
L 1159 4863 
L 1159 2956 
Q 1366 3272 1645 3428 
Q 1925 3584 2291 3584 
Q 2894 3584 3203 3211 
Q 3513 2838 3513 2113 
z
" transform="scale(0.015625)"/>
      <path id="DejaVuSans-6d" d="M 3328 2828 
Q 3544 3216 3844 3400 
Q 4144 3584 4550 3584 
Q 5097 3584 5394 3201 
Q 5691 2819 5691 2113 
L 5691 0 
L 5113 0 
L 5113 2094 
Q 5113 2597 4934 2840 
Q 4756 3084 4391 3084 
Q 3944 3084 3684 2787 
Q 3425 2491 3425 1978 
L 3425 0 
L 2847 0 
L 2847 2094 
Q 2847 2600 2669 2842 
Q 2491 3084 2119 3084 
Q 1678 3084 1418 2786 
Q 1159 2488 1159 1978 
L 1159 0 
L 581 0 
L 581 3500 
L 1159 3500 
L 1159 2956 
Q 1356 3278 1631 3431 
Q 1906 3584 2284 3584 
Q 2666 3584 2933 3390 
Q 3200 3197 3328 2828 
z
" transform="scale(0.015625)"/>
      <path id="DejaVuSans-72" d="M 2631 2963 
Q 2534 3019 2420 3045 
Q 2306 3072 2169 3072 
Q 1681 3072 1420 2755 
Q 1159 2438 1159 1844 
L 1159 0 
L 581 0 
L 581 3500 
L 1159 3500 
L 1159 2956 
Q 1341 3275 1631 3429 
Q 1922 3584 2338 3584 
Q 2397 3584 2469 3576 
Q 2541 3569 2628 3553 
L 2631 2963 
z
" transform="scale(0.015625)"/>
      <path id="DejaVuSans-4c" d="M 628 4666 
L 1259 4666 
L 1259 531 
L 3531 531 
L 3531 0 
L 628 0 
L 628 4666 
z
" transform="scale(0.015625)"/>
      <path id="DejaVuSans-49" d="M 628 4666 
L 1259 4666 
L 1259 0 
L 628 0 
L 628 4666 
z
" transform="scale(0.015625)"/>
      <path id="DejaVuSans-43" d="M 4122 4306 
L 4122 3641 
Q 3803 3938 3442 4084 
Q 3081 4231 2675 4231 
Q 1875 4231 1450 3742 
Q 1025 3253 1025 2328 
Q 1025 1406 1450 917 
Q 1875 428 2675 428 
Q 3081 428 3442 575 
Q 3803 722 4122 1019 
L 4122 359 
Q 3791 134 3420 21 
Q 3050 -91 2638 -91 
Q 1578 -91 968 557 
Q 359 1206 359 2328 
Q 359 3453 968 4101 
Q 1578 4750 2638 4750 
Q 3056 4750 3426 4639 
Q 3797 4528 4122 4306 
z
" transform="scale(0.015625)"/>
      <path id="DejaVuSans-41" d="M 2188 4044 
L 1331 1722 
L 3047 1722 
L 2188 4044 
z
M 1831 4666 
L 2547 4666 
L 4325 0 
L 3669 0 
L 3244 1197 
L 1141 1197 
L 716 0 
L 50 0 
L 1831 4666 
z
" transform="scale(0.015625)"/>
     </defs>
     <use xlink:href="#DejaVuSans-42"/>
     <use xlink:href="#DejaVuSans-65" x="68.603516"/>
     <use xlink:href="#DejaVuSans-6e" x="130.126953"/>
     <use xlink:href="#DejaVuSans-63" x="193.505859"/>
     <use xlink:href="#DejaVuSans-68" x="248.486328"/>
     <use xlink:href="#DejaVuSans-6d" x="311.865234"/>
     <use xlink:href="#DejaVuSans-61" x="409.277344"/>
     <use xlink:href="#DejaVuSans-72" x="470.556641"/>
     <use xlink:href="#DejaVuSans-6b" x="511.669922"/>
     <use xlink:href="#DejaVuSans-20" x="569.580078"/>
     <use xlink:href="#DejaVuSans-2d" x="601.367188"/>
     <use xlink:href="#DejaVuSans-20" x="637.451172"/>
     <use xlink:href="#DejaVuSans-4c" x="669.238281"/>
     <use xlink:href="#DejaVuSans-49" x="724.951172"/>
     <use xlink:href="#DejaVuSans-52" x="754.443359"/>
     <use xlink:href="#DejaVuSans-49" x="823.925781"/>
     <use xlink:href="#DejaVuSans-43" x="853.417969"/>
     <use xlink:href="#DejaVuSans-41" x="923.242188"/>
     <use xlink:href="#DejaVuSans-4c" x="991.650391"/>
     <use xlink:href="#DejaVuSans-20" x="1047.363281"/>
     <use xlink:href="#DejaVuSans-63" x="1079.150391"/>
     <use xlink:href="#DejaVuSans-6f" x="1134.130859"/>
     <use xlink:href="#DejaVuSans-72" x="1195.3125"/>
     <use xlink:href="#DejaVuSans-70" x="1236.425781"/>
     <use xlink:href="#DejaVuSans-75" x="1299.902344"/>
     <use xlink:href="#DejaVuSans-73" x="1363.28125"/>
    </g>
   </g>
   <g id="legend_1">
    <g id="patch_40">
     <path d="M 9.2 429.958031 
L 536.4 429.958031 
Q 538.4 429.958031 538.4 427.958031 
L 538.4 384.923656 
Q 538.4 382.923656 536.4 382.923656 
L 9.2 382.923656 
Q 7.2 382.923656 7.2 384.923656 
L 7.2 427.958031 
Q 7.2 429.958031 9.2 429.958031 
z
" style="fill: #ffffff; opacity: 0.8; stroke: #cccccc; stroke-linejoin: miter"/>
    </g>
    <g id="text_17">
     <!-- Run -->
     <g transform="translate(263.213281 394.522094) scale(0.1 -0.1)">
      <use xlink:href="#DejaVuSans-52"/>
      <use xlink:href="#DejaVuSans-75" x="64.982422"/>
      <use xlink:href="#DejaVuSans-6e" x="128.361328"/>
     </g>
    </g>
    <g id="patch_41">
     <path d="M 11.2 409.200219 
L 31.2 409.200219 
L 31.2 402.200219 
L 11.2 402.200219 
z
" style="fill: #dda954; stroke: #ffffff; stroke-linejoin: miter"/>
    </g>
    <g id="text_18">
     <!-- Exomiser default-13.3.0 -->
     <g transform="translate(39.2 409.200219) scale(0.1 -0.1)">
      <defs>
       <path id="DejaVuSans-45" d="M 628 4666 
L 3578 4666 
L 3578 4134 
L 1259 4134 
L 1259 2753 
L 3481 2753 
L 3481 2222 
L 1259 2222 
L 1259 531 
L 3634 531 
L 3634 0 
L 628 0 
L 628 4666 
z
" transform="scale(0.015625)"/>
       <path id="DejaVuSans-78" d="M 3513 3500 
L 2247 1797 
L 3578 0 
L 2900 0 
L 1881 1375 
L 863 0 
L 184 0 
L 1544 1831 
L 300 3500 
L 978 3500 
L 1906 2253 
L 2834 3500 
L 3513 3500 
z
" transform="scale(0.015625)"/>
       <path id="DejaVuSans-66" d="M 2375 4863 
L 2375 4384 
L 1825 4384 
Q 1516 4384 1395 4259 
Q 1275 4134 1275 3809 
L 1275 3500 
L 2222 3500 
L 2222 3053 
L 1275 3053 
L 1275 0 
L 697 0 
L 697 3053 
L 147 3053 
L 147 3500 
L 697 3500 
L 697 3744 
Q 697 4328 969 4595 
Q 1241 4863 1831 4863 
L 2375 4863 
z
" transform="scale(0.015625)"/>
       <path id="DejaVuSans-6c" d="M 603 4863 
L 1178 4863 
L 1178 0 
L 603 0 
L 603 4863 
z
" transform="scale(0.015625)"/>
       <path id="DejaVuSans-74" d="M 1172 4494 
L 1172 3500 
L 2356 3500 
L 2356 3053 
L 1172 3053 
L 1172 1153 
Q 1172 725 1289 603 
Q 1406 481 1766 481 
L 2356 481 
L 2356 0 
L 1766 0 
Q 1100 0 847 248 
Q 594 497 594 1153 
L 594 3053 
L 172 3053 
L 172 3500 
L 594 3500 
L 594 4494 
L 1172 4494 
z
" transform="scale(0.015625)"/>
      </defs>
      <use xlink:href="#DejaVuSans-45"/>
      <use xlink:href="#DejaVuSans-78" x="63.183594"/>
      <use xlink:href="#DejaVuSans-6f" x="119.238281"/>
      <use xlink:href="#DejaVuSans-6d" x="180.419922"/>
      <use xlink:href="#DejaVuSans-69" x="277.832031"/>
      <use xlink:href="#DejaVuSans-73" x="305.615234"/>
      <use xlink:href="#DejaVuSans-65" x="357.714844"/>
      <use xlink:href="#DejaVuSans-72" x="419.238281"/>
      <use xlink:href="#DejaVuSans-20" x="460.351562"/>
      <use xlink:href="#DejaVuSans-64" x="492.138672"/>
      <use xlink:href="#DejaVuSans-65" x="555.615234"/>
      <use xlink:href="#DejaVuSans-66" x="617.138672"/>
      <use xlink:href="#DejaVuSans-61" x="652.34375"/>
      <use xlink:href="#DejaVuSans-75" x="713.623047"/>
      <use xlink:href="#DejaVuSans-6c" x="777.001953"/>
      <use xlink:href="#DejaVuSans-74" x="804.785156"/>
      <use xlink:href="#DejaVuSans-2d" x="843.994141"/>
      <use xlink:href="#DejaVuSans-31" x="880.078125"/>
      <use xlink:href="#DejaVuSans-33" x="943.701172"/>
      <use xlink:href="#DejaVuSans-2e" x="1007.324219"/>
      <use xlink:href="#DejaVuSans-33" x="1039.111328"/>
      <use xlink:href="#DejaVuSans-2e" x="1102.734375"/>
      <use xlink:href="#DejaVuSans-30" x="1134.521484"/>
     </g>
    </g>
    <g id="patch_42">
     <path d="M 11.2 423.878344 
L 31.2 423.878344 
L 31.2 416.878344 
L 11.2 416.878344 
z
" style="fill: #d5643e; stroke: #ffffff; stroke-linejoin: miter"/>
    </g>
    <g id="text_19">
     <!-- Exomiser default-14.0.0 -->
     <g transform="translate(39.2 423.878344) scale(0.1 -0.1)">
      <use xlink:href="#DejaVuSans-45"/>
      <use xlink:href="#DejaVuSans-78" x="63.183594"/>
      <use xlink:href="#DejaVuSans-6f" x="119.238281"/>
      <use xlink:href="#DejaVuSans-6d" x="180.419922"/>
      <use xlink:href="#DejaVuSans-69" x="277.832031"/>
      <use xlink:href="#DejaVuSans-73" x="305.615234"/>
      <use xlink:href="#DejaVuSans-65" x="357.714844"/>
      <use xlink:href="#DejaVuSans-72" x="419.238281"/>
      <use xlink:href="#DejaVuSans-20" x="460.351562"/>
      <use xlink:href="#DejaVuSans-64" x="492.138672"/>
      <use xlink:href="#DejaVuSans-65" x="555.615234"/>
      <use xlink:href="#DejaVuSans-66" x="617.138672"/>
      <use xlink:href="#DejaVuSans-61" x="652.34375"/>
      <use xlink:href="#DejaVuSans-75" x="713.623047"/>
      <use xlink:href="#DejaVuSans-6c" x="777.001953"/>
      <use xlink:href="#DejaVuSans-74" x="804.785156"/>
      <use xlink:href="#DejaVuSans-2d" x="843.994141"/>
      <use xlink:href="#DejaVuSans-31" x="880.078125"/>
      <use xlink:href="#DejaVuSans-34" x="943.701172"/>
      <use xlink:href="#DejaVuSans-2e" x="1007.324219"/>
      <use xlink:href="#DejaVuSans-30" x="1039.111328"/>
      <use xlink:href="#DejaVuSans-2e" x="1102.734375"/>
      <use xlink:href="#DejaVuSans-30" x="1134.521484"/>
     </g>
    </g>
    <g id="patch_43">
     <path d="M 179.014063 409.200219 
L 199.014063 409.200219 
L 199.014063 402.200219 
L 179.014063 402.200219 
z
" style="fill: #376c7c; stroke: #ffffff; stroke-linejoin: miter"/>
    </g>
    <g id="text_20">
     <!-- Exomiser phenio-hpmp-ingest-13.3.0 -->
     <g transform="translate(207.014063 409.200219) scale(0.1 -0.1)">
      <use xlink:href="#DejaVuSans-45"/>
      <use xlink:href="#DejaVuSans-78" x="63.183594"/>
      <use xlink:href="#DejaVuSans-6f" x="119.238281"/>
      <use xlink:href="#DejaVuSans-6d" x="180.419922"/>
      <use xlink:href="#DejaVuSans-69" x="277.832031"/>
      <use xlink:href="#DejaVuSans-73" x="305.615234"/>
      <use xlink:href="#DejaVuSans-65" x="357.714844"/>
      <use xlink:href="#DejaVuSans-72" x="419.238281"/>
      <use xlink:href="#DejaVuSans-20" x="460.351562"/>
      <use xlink:href="#DejaVuSans-70" x="492.138672"/>
      <use xlink:href="#DejaVuSans-68" x="555.615234"/>
      <use xlink:href="#DejaVuSans-65" x="618.994141"/>
      <use xlink:href="#DejaVuSans-6e" x="680.517578"/>
      <use xlink:href="#DejaVuSans-69" x="743.896484"/>
      <use xlink:href="#DejaVuSans-6f" x="771.679688"/>
      <use xlink:href="#DejaVuSans-2d" x="834.736328"/>
      <use xlink:href="#DejaVuSans-68" x="870.820312"/>
      <use xlink:href="#DejaVuSans-70" x="934.199219"/>
      <use xlink:href="#DejaVuSans-6d" x="997.675781"/>
      <use xlink:href="#DejaVuSans-70" x="1095.087891"/>
      <use xlink:href="#DejaVuSans-2d" x="1158.564453"/>
      <use xlink:href="#DejaVuSans-69" x="1194.648438"/>
      <use xlink:href="#DejaVuSans-6e" x="1222.431641"/>
      <use xlink:href="#DejaVuSans-67" x="1285.810547"/>
      <use xlink:href="#DejaVuSans-65" x="1349.287109"/>
      <use xlink:href="#DejaVuSans-73" x="1410.810547"/>
      <use xlink:href="#DejaVuSans-74" x="1462.910156"/>
      <use xlink:href="#DejaVuSans-2d" x="1502.119141"/>
      <use xlink:href="#DejaVuSans-31" x="1538.203125"/>
      <use xlink:href="#DejaVuSans-33" x="1601.826172"/>
      <use xlink:href="#DejaVuSans-2e" x="1665.449219"/>
      <use xlink:href="#DejaVuSans-33" x="1697.236328"/>
      <use xlink:href="#DejaVuSans-2e" x="1760.859375"/>
      <use xlink:href="#DejaVuSans-30" x="1792.646484"/>
     </g>
    </g>
    <g id="patch_44">
     <path d="M 179.014063 423.878344 
L 199.014063 423.878344 
L 199.014063 416.878344 
L 179.014063 416.878344 
z
" style="fill: #9a8aac; stroke: #ffffff; stroke-linejoin: miter"/>
    </g>
    <g id="text_21">
     <!-- Phen2Gene default-1.2.3 -->
     <g transform="translate(207.014063 423.878344) scale(0.1 -0.1)">
      <defs>
       <path id="DejaVuSans-50" d="M 1259 4147 
L 1259 2394 
L 2053 2394 
Q 2494 2394 2734 2622 
Q 2975 2850 2975 3272 
Q 2975 3691 2734 3919 
Q 2494 4147 2053 4147 
L 1259 4147 
z
M 628 4666 
L 2053 4666 
Q 2838 4666 3239 4311 
Q 3641 3956 3641 3272 
Q 3641 2581 3239 2228 
Q 2838 1875 2053 1875 
L 1259 1875 
L 1259 0 
L 628 0 
L 628 4666 
z
" transform="scale(0.015625)"/>
       <path id="DejaVuSans-47" d="M 3809 666 
L 3809 1919 
L 2778 1919 
L 2778 2438 
L 4434 2438 
L 4434 434 
Q 4069 175 3628 42 
Q 3188 -91 2688 -91 
Q 1594 -91 976 548 
Q 359 1188 359 2328 
Q 359 3472 976 4111 
Q 1594 4750 2688 4750 
Q 3144 4750 3555 4637 
Q 3966 4525 4313 4306 
L 4313 3634 
Q 3963 3931 3569 4081 
Q 3175 4231 2741 4231 
Q 1884 4231 1454 3753 
Q 1025 3275 1025 2328 
Q 1025 1384 1454 906 
Q 1884 428 2741 428 
Q 3075 428 3337 486 
Q 3600 544 3809 666 
z
" transform="scale(0.015625)"/>
      </defs>
      <use xlink:href="#DejaVuSans-50"/>
      <use xlink:href="#DejaVuSans-68" x="60.302734"/>
      <use xlink:href="#DejaVuSans-65" x="123.681641"/>
      <use xlink:href="#DejaVuSans-6e" x="185.205078"/>
      <use xlink:href="#DejaVuSans-32" x="248.583984"/>
      <use xlink:href="#DejaVuSans-47" x="312.207031"/>
      <use xlink:href="#DejaVuSans-65" x="389.697266"/>
      <use xlink:href="#DejaVuSans-6e" x="451.220703"/>
      <use xlink:href="#DejaVuSans-65" x="514.599609"/>
      <use xlink:href="#DejaVuSans-20" x="576.123047"/>
      <use xlink:href="#DejaVuSans-64" x="607.910156"/>
      <use xlink:href="#DejaVuSans-65" x="671.386719"/>
      <use xlink:href="#DejaVuSans-66" x="732.910156"/>
      <use xlink:href="#DejaVuSans-61" x="768.115234"/>
      <use xlink:href="#DejaVuSans-75" x="829.394531"/>
      <use xlink:href="#DejaVuSans-6c" x="892.773438"/>
      <use xlink:href="#DejaVuSans-74" x="920.556641"/>
      <use xlink:href="#DejaVuSans-2d" x="959.765625"/>
      <use xlink:href="#DejaVuSans-31" x="995.849609"/>
      <use xlink:href="#DejaVuSans-2e" x="1059.472656"/>
      <use xlink:href="#DejaVuSans-32" x="1091.259766"/>
      <use xlink:href="#DejaVuSans-2e" x="1154.882812"/>
      <use xlink:href="#DejaVuSans-33" x="1186.669922"/>
     </g>
    </g>
    <g id="patch_45">
     <path d="M 412.640625 409.200219 
L 432.640625 409.200219 
L 432.640625 402.200219 
L 412.640625 402.200219 
z
" style="fill: #165646; stroke: #ffffff; stroke-linejoin: miter"/>
    </g>
    <g id="text_22">
     <!-- Gado default-1.0.1 -->
     <g transform="translate(440.640625 409.200219) scale(0.1 -0.1)">
      <use xlink:href="#DejaVuSans-47"/>
      <use xlink:href="#DejaVuSans-61" x="77.490234"/>
      <use xlink:href="#DejaVuSans-64" x="138.769531"/>
      <use xlink:href="#DejaVuSans-6f" x="202.246094"/>
      <use xlink:href="#DejaVuSans-20" x="263.427734"/>
      <use xlink:href="#DejaVuSans-64" x="295.214844"/>
      <use xlink:href="#DejaVuSans-65" x="358.691406"/>
      <use xlink:href="#DejaVuSans-66" x="420.214844"/>
      <use xlink:href="#DejaVuSans-61" x="455.419922"/>
      <use xlink:href="#DejaVuSans-75" x="516.699219"/>
      <use xlink:href="#DejaVuSans-6c" x="580.078125"/>
      <use xlink:href="#DejaVuSans-74" x="607.861328"/>
      <use xlink:href="#DejaVuSans-2d" x="647.070312"/>
      <use xlink:href="#DejaVuSans-31" x="683.154297"/>
      <use xlink:href="#DejaVuSans-2e" x="746.777344"/>
      <use xlink:href="#DejaVuSans-30" x="778.564453"/>
      <use xlink:href="#DejaVuSans-2e" x="842.1875"/>
      <use xlink:href="#DejaVuSans-31" x="873.974609"/>
     </g>
    </g>
   </g>
  </g>
 </g>
 <defs>
  <clipPath id="pf10407c275">
   <rect x="122.06" y="24.597656" width="301.48" height="307.24"/>
  </clipPath>
 </defs>
</svg>
